<svg xmlns="http://www.w3.org/2000/svg" width="50" height="32" viewBox="0 0 50 32">
  <title>rocket-engine-logo-short</title>
  <g>
    <path d="M40.68,0C43,0,45.09.17,46.9,1.73a8.09,8.09,0,0,1,2.79,6,8.84,8.84,0,0,1-2,5.34,7.8,7.8,0,0,1-4.24,2.36L50,24.53H44.47l-6.29-9.39v9.39H33.74V0Zm3.47,10.66A3.68,3.68,0,0,0,45.25,8,3.48,3.48,0,0,0,44,5.24a4.7,4.7,0,0,0-3.31-.82H38.18v7.26h2.43A5.16,5.16,0,0,0,44.15,10.66Z" fill="#ef3c29"/>
    <rect x="10.39" y="0.9" width="16.82" height="4.41" rx="2.17" ry="2.17" fill="#ef3c29"/>
    <rect x="10.39" y="19.5" width="16.82" height="4.41" rx="2.17" ry="2.17" fill="#ef3c29"/>
    <rect y="10.2" width="27.21" height="4.41" rx="2.17" ry="2.17" fill="#ef3c29"/>
  </g>
  <rect x="48.3843" y="30.3843" width="1.6157" height="1.6157" fill="none"/>
</svg>
