<svg xmlns="http://www.w3.org/2000/svg" width="236" height="32" viewBox="0 0 236 32">
  <title>rocket-engine-logo</title>
  <g>
    <g>
      <path d="M40.68,0C43,0,45.09.17,46.9,1.73a8.09,8.09,0,0,1,2.79,6,8.84,8.84,0,0,1-2,5.34,7.8,7.8,0,0,1-4.24,2.36L50,24.53H44.47l-6.29-9.39v9.39H33.74V0Zm3.47,10.66A3.68,3.68,0,0,0,45.25,8,3.48,3.48,0,0,0,44,5.24a4.7,4.7,0,0,0-3.31-.82H38.18v7.26h2.43A5.16,5.16,0,0,0,44.15,10.66Z" fill="#ef3c29"/>
      <path d="M60.82,25.13a9.7,9.7,0,0,1-9.5-9.76,9.55,9.55,0,1,1,19.1,0A9.66,9.66,0,0,1,60.82,25.13Zm-5.19-9.76a5.3,5.3,0,0,0,5.19,5.44,5.24,5.24,0,0,0,5.29-5.44,5.37,5.37,0,0,0-5.29-5.51,5.45,5.45,0,0,0-5.19,5.51Z" fill="#ef3c29"/>
      <path d="M81.68,25.13A9.72,9.72,0,0,1,75,22.37a9.84,9.84,0,0,1-2.91-7.17,9.63,9.63,0,0,1,9.56-9.66,9.4,9.4,0,0,1,8.95,6.71H85.73a4.45,4.45,0,0,0-4.15-2.39,5.13,5.13,0,0,0-5.18,5.41,5.27,5.27,0,0,0,5.41,5.54,4.64,4.64,0,0,0,3.92-2.25H90.6A9.42,9.42,0,0,1,81.68,25.13Z" fill="#ef3c29"/>
      <path d="M97.94,0V14.8l5.77-8.66h5.09l-6.49,9,7.56,9.39H104.1l-6.16-8.6v8.6H93.63V0Z" fill="#ef3c29"/>
      <path d="M116.75,0V4h-4.31V0Zm0,6.14V24.53h-4.31V6.14Z" fill="#ef3c29"/>
      <path d="M118.77,10.06V6.14h2.11V0h4.31V6.14h2.59v3.92h-2.59V24.53h-4.31V10.06Z" fill="#ef3c29"/>
      <path d="M146.37,0V4.42h-8.43v5.64H146v4.41h-8.07v5.65h8.43v4.41H133.5V0Z"/>
      <path d="M153.9,6.14V7.83a6.19,6.19,0,0,1,5-2.29A7.11,7.11,0,0,1,164,7.83a3.37,3.37,0,0,1,.46.54c1.39,2,1.42,4.28,1.42,6.63v9.53h-4.31V15.87c0-1.43,0-3.26-.74-4.48A3.43,3.43,0,0,0,158,9.86a3.6,3.6,0,0,0-3,1.63c-.78,1.26-.72,3.25-.72,4.71v8.33h-4.31V6.14Z"/>
      <path d="M187.44,21.74a9.49,9.49,0,0,1-2.53,7.11A10,10,0,0,1,177.77,32a9.54,9.54,0,0,1-8.91-6.07h4.89a5.84,5.84,0,0,0,4,1.75,6,6,0,0,0,4-1.52c1.29-1.23,1.45-2.49,1.71-4.18a7.24,7.24,0,0,1-5.8,3.15,9.49,9.49,0,0,1-6.42-2.89,10.53,10.53,0,0,1-2.69-7.17A9.84,9.84,0,0,1,171,8.66a9.14,9.14,0,0,1,6.81-3.12,6.2,6.2,0,0,1,5.67,3.12V6.14h4Zm-13.1-10.25a5.15,5.15,0,0,0-1.43,3.75,5.24,5.24,0,1,0,10.47.16A5.36,5.36,0,0,0,178,9.86,5.09,5.09,0,0,0,174.34,11.49Z"/>
      <path d="M195.1,0V4h-4.31V0Zm0,6.14V24.53h-4.31V6.14Z"/>
      <path d="M202.56,6.14V7.83a6.2,6.2,0,0,1,5-2.29,7.15,7.15,0,0,1,5.13,2.29,3.91,3.91,0,0,1,.45.54c1.39,2,1.43,4.28,1.43,6.63v9.53h-4.32V15.87c0-1.43,0-3.26-.74-4.48a3.43,3.43,0,0,0-2.85-1.53,3.6,3.6,0,0,0-3,1.63c-.78,1.26-.72,3.25-.72,4.71v8.33h-4.31V6.14Z"/>
      <path d="M226.56,20.81a5.51,5.51,0,0,0,4-1.59h4.76a9.39,9.39,0,0,1-8.62,5.91,9.57,9.57,0,0,1-9.47-9.66,9.68,9.68,0,0,1,9.53-9.93c5.13,0,9.21,4.52,9.21,9.66a14.68,14.68,0,0,1-.23,2.09H221.83A4.92,4.92,0,0,0,226.56,20.81Zm.2-10.95a5.26,5.26,0,0,0-5,3.52h9.89A5.09,5.09,0,0,0,226.76,9.86Z"/>
    </g>
    <rect x="10.39" y="0.9" width="16.82" height="4.41" rx="2.17" ry="2.17" fill="#ef3c29"/>
    <rect x="10.39" y="19.5" width="16.82" height="4.41" rx="2.17" ry="2.17" fill="#ef3c29"/>
    <rect y="10.2" width="27.21" height="4.41" rx="2.17" ry="2.17" fill="#ef3c29"/>
  </g>
</svg>
