<svg xmlns="http://www.w3.org/2000/svg" width="90" height="89.9998" viewBox="0 0 90 89.9998">
  <title>jm-upgrade-logo</title>
  <g>
    <path d="M443.9839,201.9713a8.7208,8.7208,0,1,0,8.8908,8.7213,8.8075,8.8075,0,0,0-8.8908-8.7213m0-1.4116c6.3713,0,11.5363,4.5341,11.5363,10.1329,0,5.5944-5.165,10.1328-11.5363,10.1328-6.3675,0-11.5324-4.5384-11.5324-10.1328,0-5.5988,5.1649-10.1329,11.5324-10.1329m0-.8871c-8.5833,0-15.5421,4.9361-15.5421,11.02s6.9588,11.0118,15.5421,11.0118,15.546-4.9284,15.546-11.0118-6.9628-11.02-15.546-11.02m16.5,11.02c0,7.4164-7.3847,13.4286-16.5,13.4286-9.1117,0-16.4963-6.0126-16.4963-13.4286,0-7.42,7.3846-13.4329,16.4963-13.4329,9.1155,0,16.5,6.0126,16.5,13.4329m-16.5-14.3751c-11.4969,0-20.8215,6.4346-20.8215,14.3751,0,7.937,9.3245,14.375,20.8215,14.375,11.5008,0,20.8253-6.4384,20.8253-14.375,0-7.9405-9.3244-14.3751-20.8253-14.3751m0-2.4365c-11.9858,0-21.7046,7.5266-21.7046,16.8116,0,9.2811,9.7187,16.8115,21.7046,16.8115,11.99,0,21.7045-7.53,21.7045-16.8115,0-9.2854-9.7147-16.8116-21.7045-16.8116m25.6866,47.8407-24.4092-11.8951-.4259.2206v12.274s0,.4732-.4258.4732h-1.1907c-.3666,0-.3666-.4732-.3666-.4732V228.7974c0-.3588-.2523-.3708-.2523-.3708-13.4249-.4062-24.2437-8.193-24.2437-17.7344,0-9.8052,11.4733-17.7537,25.6276-17.7537,14.1582,0,25.6315,7.9485,25.6315,17.7537,0,9.8017-10.6809,16.3857-22.2014,17.612l-.3.355L470.66,240.0853a.6409.6409,0,0,1,.2287.7489,4.27,4.27,0,0,1-.4533.8047c-.2287.3627-.7649.082-.7649.082" transform="translate(-400.2869 -164.1841)"/>
    <path d="M489.4628,253.3561v.8278H400.2869v-90h90v90h-.8241v-.8278h-.828v-87.52H401.9389v86.6962h87.5239v.824h-.828" transform="translate(-400.2869 -164.1841)"/>
    <path d="M427.393,184.4062v.4929h8.9578l-.0064-3.8523h-.3627c-.2523,3.4064-2.9215,3.3748-3.2922,3.371h-1.4V174.0366h1.7466v-.5286H427.39v.5286h1.6717l.0032,10.3812" transform="translate(-400.2869 -164.1841)"/>
    <path d="M416.46,180.5386h-.4771c.019.5244-.6663,3.9585-3.3592,3.982-1.7426.0316-2.59-1.25-2.5312-4.9992.0126-.6427-.1457-5.5907,2.8545-5.6261,2.4366-.0316,3.028,3.6547,3.0241,3.6432h.5046c.019-.2492,0-3.4738,0-3.8523h-.1971l-.7885.3312c-.4574.0473-1.447-.5795-2.6416-.603-1.8373-.0408-5.1925,2.4838-5.09,6.0088.1577,5.4724,4.7115,5.5552,4.7667,5.5552a7.0876,7.0876,0,0,0,2.4958-.6388.9548.9548,0,0,1,1.25.5048h.1262l.0631-4.3135" transform="translate(-400.2869 -164.1841)"/>
    <path d="M475.3323,180.3057h2.7914L476.57,176.793l-1.2379,3.5127Zm-.4022,4.5972h-7.0022V184.41h1.5534V173.9973h-1.49v-.4966h5.295v.4966h-1.4627V184.41h1.4982l3.8166-10.9056h.3272l4.9639,10.9056h1.3642v.4928h-4.9205V184.41h1.0448l-1.5495-3.5446H475.147l-1.1947,3.5446h.9778" transform="translate(-400.2869 -164.1841)"/>
    <path d="M422.5868,173.8753a1.9072,1.9072,0,0,0-2.2236,1.9556,55.2522,55.2522,0,0,0-.1457,6.0006c.1141,1.1078-.2328,2.6417,2.2512,2.6417,2.5233-.0473,2.3065-1.5339,2.4051-2.7757a38.1822,38.1822,0,0,0-.1142-5.8982c-.0946-1.9-1.2458-1.8924-2.1724-1.924m4.9914,5.2953a5.57,5.57,0,0,1-5.1413,5.8032c-2.1566,0-4.8732-1.9236-4.8732-5.6061,0-3.4621,2.6534-6.001,5.0388-6.001,2.1724,0,4.8416,2.0071,4.9757,5.8039" transform="translate(-400.2869 -164.1841)"/>
    <path d="M445.3283,173.9623h-.623v7.6529l-.0514.9028c-.1892.9464-.753,2.4565-3.28,2.6221-2.3854.1544-3.994-1.4708-4.0018-2.9848v-8.1614h-1.27v-.4967h4.7313v.4967h-1.27l.0064,9.439c.0031.2017.4377,1.1158,1.81,1.1751a2.5638,2.5638,0,0,0,2.815-2.6375v-8.0078h-.7373l-.0094-.4613h1.8767" transform="translate(-400.2869 -164.1841)"/>
    <path d="M446.0971,173.4964h3.1186l2.6023,7.3217,2.3261-7.3217h3.4065v.5009h-1.1238l-.0063,10.4124h1.1354v.4928h-4.53V184.41h1.1512v-9.4232l-3.1344,9.9h-.11l-3.584-9.9237V184.41h.8753v.4928h-2.129V184.41h.7964v-10.452h-.7925" transform="translate(-400.2869 -164.1841)"/>
    <path d="M463.5869,184.4062c.2288,0,1.8886.0724,1.8216-2.6613-.0126-.4459-.0158-2.5747-1.6244-2.7087h-2.0029v5.3619h1.8057Zm.1814-5.981c.93,0,1.3169-1.0011,1.3011-2.2159-.019-2.401-1.1552-2.2116-1.7191-2.2154h-1.5691v4.4355h1.9871m-5.24-4.9284h4.94c1.62.0316,3.2488.978,3.5248,2.2632.217,1.0335-.1536,2.3025-2.0739,2.8785l-.0435.1579c.0316,0,2.6692.611,2.6811,2.5743a3.6216,3.6216,0,0,1-3.7535,3.5288h-5.2714v-.4929h.9266l-.0032-10.4123h-.9266" transform="translate(-400.2869 -164.1841)"/>
  </g>
</svg>
