<svg xmlns="http://www.w3.org/2000/svg" width="133.1638" height="41.9205" viewBox="0 0 133.1638 41.9205">
  <title>chopard-loves-london-logo</title>
  <path d="M25.3183.7446h-1.664C17.3027.7008,1.49,2.0152,1.49,11.3012c0,4.6868,4.8621,6.6579,8.9353,6.6579.57,0,1.1832-.0436,1.7966-.0871A46.1963,46.1963,0,0,1,22.9536,7.7532C26.94,5.0366,33.51,1.358,38.5035,1.358c1.2268,0,2.76.8761,2.76,2.2338,0,4.5115-9.5933,10.4251-13.4476,12.0461a46.7626,46.7626,0,0,1-12.1778,3.2408c-2.3212,3.2861-5.2128,7.316-5.2128,11.4774A2.2965,2.2965,0,0,0,12.966,32.59c5.5637,0,13.93-5.0369,13.93-11.257a1.75,1.75,0,0,0-1.9275-1.752c-4.1178,0-8.63,3.9422-10.513,7.4023l-.2627-.0436c1.1823-4.3367,6.6143-8.4975,11.0384-8.4975a3.32,3.32,0,0,1,3.4171,3.3291,9.9594,9.9594,0,0,1-1.2707,4.3361c1.6643-.8317,3.3291-1.7086,4.95-2.6283l5.7382-6.8771,3.548-4.2487c1.7522-2.0593,6.0015-7.1842,8.9805-7.1842a1.0971,1.0971,0,0,1,1.0509,1.1824c0,6.0453-10.3377,12.835-15.2,15.3751l-.6134.7887c1.7958-.7887,3.5924-1.7522,5.5629-1.7522a1.8579,1.8579,0,0,1,1.9711,1.7087,2.9638,2.9638,0,0,1-.569,1.7086l-5.4319,7.7091a.9728.9728,0,0,0-.2192.4816.2842.2842,0,0,0,.2627.2189c1.6648,0,5.081-2.89,6.3516-3.9857,2.015-3.636,6.3081-7.8412,10.7322-7.8412a2.749,2.749,0,0,1,2.9346,2.8037,6.9862,6.9862,0,0,1-.9635,3.2417,34.1693,34.1693,0,0,0,11.2138-8.7172l2.76-3.5045L73.24,14.63l-6.6582,8.5854c1.4457-1.007,3.3288-2.1458,5.1684-2.1458a1.6554,1.6554,0,0,1,1.5777,1.5325,2.1338,2.1338,0,0,1-.3509,1.0076L67.589,31.4943a.4735.4735,0,0,0-.131.3063.3462.3462,0,0,0,.3507.351c2.059,0,4.3358-2.19,5.913-3.4168,2.4965-3.5915,6.3958-7.9721,11.17-7.9721a3.4325,3.4325,0,0,1,3.3293,2.19l1.27-1.7958h2.8034L84.8475,31.4508a.8077.8077,0,0,0-.2191.526c0,.2627.2191.35.438.35,2.8914,0,9.5931-8.2786,10.6887-11.0387a.9229.9229,0,0,1-.4817-.8753c0-1.0953.92-2.8472,2.2336-2.8472.7008,0,.964.8317.964,1.4013a5.5879,5.5879,0,0,1-.3068,1.6648c.92,0,3.0225,0,3.0225,1.3577a2.3023,2.3023,0,0,1-.5259,1.4016l-5.2129,7.6211a1.4361,1.4361,0,0,0-.35.8325c0,.2636.22.3948.4819.3948,3.0226,0,6.1769-3.242,8.06-5.3879,2.1018-3.0228,5.3443-6.3516,9.3295-6.3516a3.1766,3.1766,0,0,1,3.0667,2.5845l14.28-18.836,2.8472.0441-19.58,25.8435a2.6505,2.6505,0,0,0-.7008,1.4456.5433.5433,0,0,0,.5251.57c2.8914,0,6.8338-5.0374,8.3663-7.2274l.351.1318c-1.84,3.3285-5.6939,8.5849-9.987,8.5849a1.7629,1.7629,0,0,1-1.7525-1.8829,3.9081,3.9081,0,0,1,.0877-.7011c-1.7079,1.1389-3.5045,2.41-5.6071,2.41a2.4568,2.4568,0,0,1-2.7154-2.2785A5.8129,5.8129,0,0,1,102.37,29.7c-2.1464,1.6207-4.9054,3.5044-7.71,3.5044a1.6613,1.6613,0,0,1-1.7958-1.6218,4.1584,4.1584,0,0,1,.964-2.4089l4.643-6.5708c.1312-.1745.351-.3937.351-.569,0-.3071-.6578-.3071-.8767-.3071h-.2622C95.537,25.538,88.79,33.51,84.1041,33.51a1.7143,1.7143,0,0,1-1.7958-1.6207,5.33,5.33,0,0,1,.0871-.8323c-1.9275,1.183-3.9863,2.453-6.3078,2.453-1.7955,0-2.6283-1.3139-2.6283-2.9346v-.0877c-1.7525,1.2268-4.2491,3.0664-6.4826,3.0664a1.8647,1.8647,0,0,1-1.9714-1.8829,4.4114,4.4114,0,0,1,.9635-2.4541l4.337-5.8691a1.1132,1.1132,0,0,0,.2621-.57c0-.0871-.0432-.1753-.1306-.1753-2.6286,0-8.5422,6.5708-10.0317,8.4986l-8.41,10.819-3.11-.0438L62.6394,24.4433a61.3409,61.3409,0,0,1-7.3587,4.2052c-2.322,2.4963-5.4755,4.906-9.0673,4.906a2.6214,2.6214,0,0,1-2.76-2.5412,9.2722,9.2722,0,0,1,.0871-1.095l-1.1824.8328c-1.8393,1.2268-4.2049,3.11-6.4834,3.11a1.4246,1.4246,0,0,1-1.358-1.489,4.3966,4.3966,0,0,1,1.0079-2.4088L40.65,22.7788a.7614.7614,0,0,0,.1754-.5255.3383.3383,0,0,0-.3507-.3062c-2.1459,0-6.2637,3.6353-7.84,4.9059l-4.95,6.6579H23.9171l6.2642-7.49c-1.3586.7008-2.6727,1.3577-4.03,2.0149-3.2409,3.11-6.9648,5.9572-11.6519,5.9572-3.5915,0-6.0889-2.3207-6.0889-5.9136a16.8364,16.8364,0,0,1,3.11-9.0233,7.1214,7.1214,0,0,1-.9635.0436C5.9574,19.0979,0,16.8641,0,11.3886,0,2.453,13.1849,0,19.8436,0a39.0444,39.0444,0,0,1,5.5629.4381ZM16.6455,17.39a36.6172,36.6172,0,0,0,11.8271-3.7672c2.8037-1.4021,10.8632-6.7023,10.8632-10.4694,0-.3507-.4381-.4819-.7008-.4819-3.68,0-9.5054,4.0734-12.3091,6.001A49.4509,49.4509,0,0,0,16.6455,17.39Zm21.727,1.7078C41.6134,17.2583,50.506,10.25,50.506,6.6144a.1886.1886,0,0,0-.1754-.1754C47.396,6.439,40.1248,16.7767,38.3725,19.0979Zm14.8056,9.1553a1.948,1.948,0,0,1-.3062-1.0079c0-1.62,1.4894-2.3648,2.8907-2.4965a4.058,4.058,0,0,0,.6572-1.84c0-.6131-.6133-.7888-1.095-.7888-3.3726,0-9.9,6.22-9.9,9.5054a.8672.8672,0,0,0,.8326.9638C48.9729,32.59,51.6448,30.3122,53.1781,28.2532Zm33.8164-4.9939a1.2873,1.2873,0,0,0-1.358-1.3577c-3.2855,0-9.7251,6.3952-9.7251,9.7689a.8232.8232,0,0,0,.7887.8312C79.9857,32.5017,86.9945,26.6328,86.9945,23.2593Zm27.816-.3063c0-.6134-.3068-1.3577-1.0517-1.3577-3.3732,0-9.33,6.8332-9.33,9.9434a.9906.9906,0,0,0,1.0077,1.0071C108.4578,32.5455,114.8105,26.0629,114.8105,22.953Z" fill="#161413"/>
</svg>
