<svg xmlns="http://www.w3.org/2000/svg" width="158" height="27.3161" viewBox="0 0 158 27.3161">
  <title>grey-goose-logo-black-h</title>
  <path d="M29.4551,21.4106A24.0135,24.0135,0,0,1,27.26,18.1749a5.3247,5.3247,0,0,0,3.6077-5.1433c-.1242-5.0967-6.3-5.2216-6.3-5.2216H19.8434s.2082.8276.333,1.1218a4.3829,4.3829,0,0,1,.1655.9889V24.4393a4.4972,4.4972,0,0,1-.0633.83,6.5454,6.5454,0,0,1-.3515,1.244h3.9568s-.27-.8108-.3941-1.1417a5.1336,5.1336,0,0,1-.1229-1.1828v-6.3s1.5242,2.2106,3.3953,4.3924c1.7844,2.0765,3.8973,4.1908,3.8973,4.1908h3.1089S31.86,24.3129,29.4551,21.4106Zm-6.0882-3.9185V9.4708s4.5348.1428,4.5348,3.6856C27.9017,17.2024,23.3669,17.4921,23.3669,17.4921Z" transform="translate(0 -0.6839)" fill-rule="evenodd"/>
  <path d="M142.1881,11.46V8.4722a8.6984,8.6984,0,0,0-3.8334-.95c-1.8681,0-5.655,1.1579-5.7814,5.2229-.1154,3.6463,2.1106,4.1892,3.9788,5.4746,1.4622,1.0114,3.356,1.8239,3.356,3.5624,0,1.3315-.8938,2.821-3.3377,2.5752-1.301-.1336-3.1892-2.1772-3.1892-2.1772v3.8731a12.938,12.938,0,0,0,4.3694.6657c2.0592-.1746,4.5456-1.3888,5.0565-3.3153.6244-2.3446.2919-4.814-1.8211-6.2625-1.1041-.7552-3.5643-1.9921-3.9421-2.3636A2.8045,2.8045,0,0,1,135.6786,12a2.5749,2.5749,0,0,1,2.6106-2.1585,5.43,5.43,0,0,1,3.8989,1.6192Z" transform="translate(0 -0.6839)" fill-rule="evenodd"/>
  <path d="M131.4321,15.3486a9.82,9.82,0,0,0-11.5057-7.7709,9.9449,9.9449,0,0,0-8.2241,8.4438,1.8666,1.8666,0,0,0,.6479-.3127c.27-.2358.5941-.9431,1.4617-.9431.2479,0,.6094.1105,1.06.18a6.8448,6.8448,0,0,1,5.3349-5.3409c3.7354-.66,7.3594,2.1791,8.0969,6.3405.7307,4.1656-1.7044,8.0717-5.4414,8.7323-3.7335.6582-7.3571-2.1832-8.0914-6.3448a8.45,8.45,0,0,1-.0841-2.3376,2.36,2.36,0,0,1-1.4569.6252,5.7043,5.7043,0,0,0-1.59.8179,9.368,9.368,0,0,0,.1277,1.38,9.99,9.99,0,0,0,19.6643-3.47Z" transform="translate(0 -0.6839)" fill-rule="evenodd"/>
  <g>
    <path d="M110.1688,16.3407a9.4422,9.4422,0,0,0-.122-1.0739c-.0276-.1563-.071-.3056-.1059-.4586-.22.2577-.4208.4935-.5613.6805a2.4325,2.4325,0,0,0-.5343,1.1788A8.3993,8.3993,0,0,1,110.1688,16.3407Z" transform="translate(0 -0.6839)" fill-rule="evenodd"/>
    <path d="M103.0457,10.262a7.8408,7.8408,0,0,1,3.6566,4.7075c.159-.1364.39-.3375.7127-.6282a19.99,19.99,0,0,0,1.7184-1.764,9.8361,9.8361,0,0,0-7.5544-5.1631C102.0681,8.4618,102.6473,9.5406,103.0457,10.262Z" transform="translate(0 -0.6839)" fill-rule="evenodd"/>
    <path d="M106.1871,20.9812a6.6008,6.6008,0,0,1-4.7075,3.6125c-3.737.66-7.3571-2.1788-8.0953-6.3444-.7322-4.1617,1.7005-8.0721,5.4382-8.7284.0863-.0152.1719-.0193.258-.0308a7.0866,7.0866,0,0,1-.8028-1.935,9.8069,9.8069,0,0,0-7.8965,11.1817,9.8213,9.8213,0,0,0,11.5073,7.77,9.9655,9.9655,0,0,0,8.1176-7.8263A14.1122,14.1122,0,0,1,106.1871,20.9812Z" transform="translate(0 -0.6839)" fill-rule="evenodd"/>
  </g>
  <path d="M47.0713,7.7694h4.3523a3.2107,3.2107,0,0,0,.0407,1.2014c.249.5371,3.4192,6.0951,3.4192,6.0951l3.2341-5.87a1.6427,1.6427,0,0,0,.1632-.746,4.5232,4.5232,0,0,0-.039-.68h3.8746l-5.72,10.0742.0223,7.135a6.6206,6.6206,0,0,0,.1248.7664c.0594.2487.2471.7267.2471.7267H53.0176s.1045-.3345.2287-.7064a2.2678,2.2678,0,0,0,.0838-.809V17.8885L48.7717,9.8837a3.88,3.88,0,0,0-.79-1.12,6.9616,6.9616,0,0,1-.91-.9947Z" transform="translate(0 -0.6839)" fill-rule="evenodd"/>
  <path d="M144.8384,26.4717a7.7682,7.7682,0,0,0,.459-1.266,5.7728,5.7728,0,0,0,.1412-1.37L145.42,10.5458a5.4248,5.4248,0,0,0-.269-1.5979c-.2736-.7208-.5206-1.2194-.5206-1.2194h10.448l-1.58,2.9438s-.9531-.517-1.4479-.7254a5.863,5.863,0,0,0-2.0313-.3758h-1.49v6.4505h5.82l-1.6353,2.7371s-.4534-.1785-1.0776-.459a5.2067,5.2067,0,0,0-1.9278-.3722h-1.18v6.616a24.1707,24.1707,0,0,0,4.33-.2306,35.4175,35.4175,0,0,0,3.3564-1.1582l-1.4072,3.317Z" transform="translate(0 -0.6839)" fill-rule="evenodd"/>
  <path d="M86.8594,11.3541V8.2271S72.3135,3.7047,71.15,17.4721c-.535,6.3631,5.5958,9.3328,9.9482,9.2469a19.9462,19.9462,0,0,0,7.2086-1.2866,5.2118,5.2118,0,0,1-.3083-1.614l-.0409-4.2937s.1432-1.0969.227-1.43a8.4927,8.4927,0,0,1,.3712-.996h-4.828a11.28,11.28,0,0,1,.7227,1.0373,4.8186,4.8186,0,0,1,.5,1.7853l.1674,3.7727a8.0585,8.0585,0,0,1-3.6073.7454c-2.6093-.1264-7.17-2.0327-7.2942-6.636-.08-3.0293.7025-6.9656,5.2632-7.9623,2.8413-.6156,5.7553.7137,7.3794,1.5131Z" transform="translate(0 -0.6839)" fill-rule="evenodd"/>
  <path d="M35.1773,26.4717a7.6921,7.6921,0,0,0,.4571-1.266,5.8,5.8,0,0,0,.1451-1.37l-.0229-13.2894a5.4248,5.4248,0,0,0-.269-1.5979c-.27-.7208-.5183-1.2194-.5183-1.2194H45.4134l-1.574,2.9438s-.955-.517-1.4514-.7254a5.8578,5.8578,0,0,0-2.03-.3758H38.8659v6.4505h5.8228l-1.6353,2.7371s-.4538-.1785-1.08-.459a5.2117,5.2117,0,0,0-1.9291-.3722H38.8659v6.616a24.2074,24.2074,0,0,0,4.3323-.2306,35.4062,35.4062,0,0,0,3.3564-1.1582l-1.4108,3.317Z" transform="translate(0 -0.6839)" fill-rule="evenodd"/>
  <path d="M15.7382,11.3541V8.2271S1.1943,3.7047.0328,17.4721c-.5354,6.3631,5.5938,9.3328,9.9464,9.2469a19.9722,19.9722,0,0,0,7.2124-1.2866,5.1841,5.1841,0,0,1-.3126-1.614l-.0406-4.2937s.1448-1.0969.2287-1.43a8.8122,8.8122,0,0,1,.3735-.996H12.6125a11.8044,11.8044,0,0,1,.7228,1.0373,4.9267,4.9267,0,0,1,.498,1.7853l.1651,3.7727a8.0552,8.0552,0,0,1-3.6053.7454c-2.609-.1264-7.17-2.0327-7.2939-6.636-.08-3.0293.7044-6.9656,5.2631-7.9623,2.8394-.6156,5.7574.7137,7.3759,1.5131Z" transform="translate(0 -0.6839)" fill-rule="evenodd"/>
  <polygon points="35.28 26.511 35.78 27.03 46.179 27.03 48.296 22.075 47.363 22.448 45.642 26.511 35.28 26.511 35.28 26.511" fill-rule="evenodd"/>
  <path d="M39.5723,23.8352V18.6323s.4036-.0095.8174.0075a5.3856,5.3856,0,0,1,1.2418.2736c.381.1671,1.73.7342,1.73.7342l2.1041-3.5552h.9331l-2.435,4.0758s-1.4734-.5986-1.7843-.7254a3.92,3.92,0,0,0-1.3859-.247H40.13v4.6394Z" transform="translate(0 -0.6839)" fill-rule="evenodd"/>
  <path d="M39.5723,15.3057V10.2794h.7322a8.2387,8.2387,0,0,1,.9646.0708,5.4059,5.4059,0,0,1,1.0255.3293c.2788.1376,1.8456.9557,1.8456.9557L46.1788,7.81l.53.653L44.75,12.1355l-1.821-.9056a2.2251,2.2251,0,0,0-.6949-.2493,6.6249,6.6249,0,0,0-1.1078-.1317c-.4164-.0207-.9963-.0112-.9963-.0112v4.468Z" transform="translate(0 -0.6839)" fill-rule="evenodd"/>
  <polygon points="144.986 26.511 145.482 27.03 155.887 27.03 158 22.075 157.063 22.448 155.344 26.511 144.986 26.511 144.986 26.511" fill-rule="evenodd"/>
  <path d="M149.2746,23.8352V18.6323s.405-.0095.8175.0075a5.377,5.377,0,0,1,1.2434.2736c.3771.1671,1.73.7342,1.73.7342l2.1018-3.5552h.9351l-2.4347,4.0758s-1.4721-.5986-1.7836-.7254a3.9337,3.9337,0,0,0-1.3882-.247h-.6619v4.6394Z" transform="translate(0 -0.6839)" fill-rule="evenodd"/>
  <path d="M149.2746,15.3057V10.2794h.7359a8.2382,8.2382,0,0,1,.9626.0708,5.5624,5.5624,0,0,1,1.0278.3293c.2785.1376,1.8417.9557,1.8417.9557L155.887,7.81l.5256.653-1.9606,3.6725-1.821-.9056a2.2076,2.2076,0,0,0-.6933-.2493,6.6467,6.6467,0,0,0-1.11-.1317c-.4145-.0207-.9941-.0112-.9941-.0112v4.468Z" transform="translate(0 -0.6839)" fill-rule="evenodd"/>
  <path d="M24.6287,16.4771l-.55.1526v-6.35a9.9019,9.9019,0,0,1,1.12.3067,4.0069,4.0069,0,0,1,1.2951.7909s-.7358-.3017-1.1614-.4354a4.7117,4.7117,0,0,0-.7044-.1451v5.6806Z" transform="translate(0 -0.6839)" fill-rule="evenodd"/>
  <path d="M28.2877,18.5058A6.4729,6.4729,0,0,0,30.92,15.9993a5.9838,5.9838,0,0,0-.1562-5.8663,5.6552,5.6552,0,0,1,.8194,6.2087,6.4085,6.4085,0,0,1-2.8708,2.8092l-.4243-.6451Z" transform="translate(0 -0.6839)" fill-rule="evenodd"/>
  <path d="M19.719,27.7773l.208-.5393h4.9287l-.476-1.2443a4.2982,4.2982,0,0,1-.2268-.8087c-.0409-.3332-.0816-.7883-.0816-.7883L24.09,20.105l.5186.6435v4.1872a2.2623,2.2623,0,0,0,.0819.8093c.1262.3325.6855,2.0323.6855,2.0323Z" transform="translate(0 -0.6839)" fill-rule="evenodd"/>
  <polygon points="30.773 26.511 31.323 27.03 34.659 27.03 34.161 26.511 30.773 26.511 30.773 26.511" fill-rule="evenodd"/>
  <path d="M5.2547,21.2468s-1.6188-1.495-.5389-5.9725a5.4423,5.4423,0,0,1,5.5118-4.27,11.7089,11.7089,0,0,1,6.7962,2.1126V8.4316h-.0406L16.4849,8.31v4.145s-3.4393-1.99-6.2976-2.0736a5.589,5.589,0,0,0-6.0515,4.3959c-1.2637,4.5948,1.1189,6.4692,1.1189,6.4692Z" transform="translate(0 -0.6839)" fill-rule="evenodd"/>
  <path d="M3.0566,25.3115a10.8405,10.8405,0,0,0,7.0468,2.1549,20.5635,20.5635,0,0,0,7.9577-1.64,4.9149,4.9149,0,0,1-.3322-.9747,6.9862,6.9862,0,0,1-.1655-1.7417V19.5844a4.2313,4.2313,0,0,1,.1874-1.1992,7.2156,7.2156,0,0,1,.4348-1.2034H18.91a5.6689,5.6689,0,0,0-.7061,2.261c-.1189.846-.0616,4.4985-.0616,4.4985a5.6735,5.6735,0,0,0,.1655,1.513,6.387,6.387,0,0,1,.27,1.0174s-.5.43-3.5215,1.0579c-8.207,1.7-12-2.2181-12-2.2181Z" transform="translate(0 -0.6839)" fill-rule="evenodd"/>
  <path d="M53.0294,27.184h4.7661l-.3433-.9521a5.0551,5.0551,0,0,1-.2382-.6861,3.994,3.994,0,0,1-.0911-.7343l-.0111-6.767,5.7913-10.21h.905L57.6419,18.6748l.02,6.6141a2.6852,2.6852,0,0,0,.0409.5488c.05.2978.1023.5891.1023.5891l.5632,1.2909H52.9324l.097-.5337Z" transform="translate(0 -0.6839)" fill-rule="evenodd"/>
  <path d="M54.9451,13.45l-.07.1655L52.1913,8.8237a.6244.6244,0,0,1-.0839-.2008,1.5135,1.5135,0,0,1-.0111-.381c.0111-.084.0331-.404.0331-.404h.6264s-.0891.6828-.1039.8518c-.0114.1265-.015.4348-.015.4348a1.6666,1.6666,0,0,0,.0521.3037c.03.08,2.2561,4.0218,2.2561,4.0218Z" transform="translate(0 -0.6839)" fill-rule="evenodd"/>
  <path d="M76.3746,21.2468s-1.6188-1.495-.5373-5.9725a5.4391,5.4391,0,0,1,5.51-4.27,11.7148,11.7148,0,0,1,6.7943,2.1126V8.4316h-.0406L87.6028,8.31v4.145s-3.4379-1.99-6.2962-2.0736a5.5925,5.5925,0,0,0-6.0544,4.3959c-1.26,4.5948,1.1224,6.4692,1.1224,6.4692Z" transform="translate(0 -0.6839)" fill-rule="evenodd"/>
  <path d="M74.1759,25.3115A10.8366,10.8366,0,0,0,81.22,27.4664a20.5667,20.5667,0,0,0,7.9593-1.64,4.7447,4.7447,0,0,1-.3326-.9747,6.9572,6.9572,0,0,1-.1638-1.7417V19.5844a4.2313,4.2313,0,0,1,.1874-1.1992,7.0253,7.0253,0,0,1,.4351-1.2034h.7228a5.66,5.66,0,0,0-.7041,2.261c-.12.846-.0613,4.4985-.0613,4.4985a5.48,5.48,0,0,0,.1691,1.513,6.641,6.641,0,0,1,.2657,1.0174s-.5.43-3.5234,1.0579c-8.2051,1.7-11.9981-2.2181-11.9981-2.2181Z" transform="translate(0 -0.6839)" fill-rule="evenodd"/>
  <g>
    <path d="M109.6882,11.9155a7.84,7.84,0,0,0-.5516-.7878,9.153,9.153,0,0,1,.4928.86Z" transform="translate(0 -0.6839)" fill-rule="evenodd"/>
    <path d="M111.2429,16.14a10.3789,10.3789,0,0,0-.5668-2.2163c-.0593.0754-.1206.15-.1815.2244a10.3223,10.3223,0,0,1,.3882,2.06c.1354-.0245.2531-.0458.32-.0593Z" transform="translate(0 -0.6839)" fill-rule="evenodd"/>
    <path d="M110.84,18.0264a10.8235,10.8235,0,0,1-16.8944,7.406,10.8335,10.8335,0,0,0,5.5286,2.4046,11.2216,11.2216,0,0,0,7.441-1.8037,10.3282,10.3282,0,0,0,4.4137-8.3761Q111.0871,17.8342,110.84,18.0264Z" transform="translate(0 -0.6839)" fill-rule="evenodd"/>
  </g>
  <path d="M125.1765,11.73a5.8885,5.8885,0,0,0-5.8464-1.1438,6.4114,6.4114,0,0,0-3.9156,5.331,7.47,7.47,0,0,0,1.7613,5.91,8.0622,8.0622,0,0,1-.89-6.7,5.96,5.96,0,0,1,3.7707-4.02,6.2591,6.2591,0,0,1,5.12.6229Z" transform="translate(0 -0.6839)" fill-rule="evenodd"/>
  <path d="M130.5212,11.23A11.1045,11.1045,0,0,1,132.24,18.032a10.82,10.82,0,0,1-16.9078,7.5063,10.818,10.818,0,0,0,5.5329,2.4009,11.2185,11.2185,0,0,0,7.439-1.802,10.3372,10.3372,0,0,0,4.4117-8.5386,10.6542,10.6542,0,0,0-2.1946-6.3687Z" transform="translate(0 -0.6839)" fill-rule="evenodd"/>
  <path d="M137.0573,13.8759a1.899,1.899,0,0,1-.6412-1.96,1.9719,1.9719,0,0,1,2.2171-1.37,5.3,5.3,0,0,1,2.9734,1.3276,4.7373,4.7373,0,0,0-2.113-.7664,2.1817,2.1817,0,0,0-2.455,1.2424,1.9408,1.9408,0,0,0,.0187,1.5265Z" transform="translate(0 -0.6839)" fill-rule="evenodd"/>
  <polygon points="143.441 12.829 142.913 12.3 142.913 8.132 143.432 8.575 143.441 12.829 143.441 12.829" fill-rule="evenodd"/>
  <path d="M133.452,27.1545v-.3218a13.6277,13.6277,0,0,0,3.49.6337,7.9816,7.9816,0,0,0,5.0365-1.64,5.1676,5.1676,0,0,0,1.8321-4.1111,7.26,7.26,0,0,0-.8587-3.6208A7.1455,7.1455,0,0,1,144.34,21.39c.29,2.6941-1.0963,6.884-7.5,6.5492a13.427,13.427,0,0,1-3.3878-.7847Z" transform="translate(0 -0.6839)" fill-rule="evenodd"/>
  <path d="M115.9652,14.9858c-.22,0,0,.0157-.44.0157a17.0728,17.0728,0,0,1-1.7132-.2358c-.8676,0-1.1914.7073-1.4617.9431a2.7852,2.7852,0,0,1-1.1474.44,19.1515,19.1515,0,0,0-2.3575.5186,2.4325,2.4325,0,0,1,.5343-1.1788,20.3968,20.3968,0,0,0,1.9962-2.6091c.4034-.9586.6758-1.7026.8329-2.1532a7.2459,7.2459,0,0,1,.9274-2.3733c.0355-.044.1011-.2065-.0472-.1257a3.5718,3.5718,0,0,0-1.1631,1.43.7775.7775,0,0,1,.0786-.6915c.02-.0293.045-.1213-.0629-.0473s-.254.1389-.6915.7544a12.2655,12.2655,0,0,1-.7387,1.1631c-.2541.3485-.6287.8514-1.0059,1.3045a21.6236,21.6236,0,0,1-2.09,2.2c-.6784.6105-.9744.8488-.9744.8488a13.6894,13.6894,0,0,1-1.2732-1.54c-.6161-.874-1.4743-2.2194-1.6974-2.6248s-1.3282-2.334-2.0747-4.0079a34.8829,34.8829,0,0,1-1.7446-4.5109,13.5466,13.5466,0,0,1-.4558-1.76C99.1854.6706,99.174.6621,99.132.73a3.8977,3.8977,0,0,0-.3772,2.4046,3.2,3.2,0,0,1-.723-1.3359s-.0283-.0723-.0472-.0157a3.99,3.99,0,0,0,.0629,1.8388s-.1257.1384-.1257.7231a4.0462,4.0462,0,0,0,.3772,1.87,1.7288,1.7288,0,0,0-.11.66,6.2794,6.2794,0,0,0,1.0688,2.892s-.0158.1768-.0158.3773c0,2.2082,2.46,3.3241,2.8606,6.774a5.0167,5.0167,0,0,0,1.2573,1.1788s-.0943.1048-.8016.9745-1.2573,1.4826-1.8074,1.5874c-.0314,0-.0283.0315,0,.0471a1.3044,1.3044,0,0,0,.9273.2516,1.24,1.24,0,0,1-.4872.1571c-.0315,0-.0221.019.0157.0315a4.5231,4.5231,0,0,0,2.1219.4244c5.1274-.262,7.2587-4.1731,9.9017-4.951a2.4559,2.4559,0,0,0,1.729-.88,5.8142,5.8142,0,0,1,.943-.393c.1886-.0566.2829-.1665.2829-.22S116.1852,14.9858,115.9652,14.9858Zm-1.1918.5181a2.2251,2.2251,0,0,1-1.5429.8164,9.3586,9.3586,0,0,0-3.09,1.8731c-1.73,1.3671-3.69,2.916-6.82,3.0781a5.1385,5.1385,0,0,1-1.5732-.2266l-.0664-.3867c-.0625-.001-.1407-.0039-.2237-.0117a7.3764,7.3764,0,0,0,1.334-1.3848c.6651-.8183.7822-.9521.793-.9638l.23-.2579-.2871-.1923a4.9127,4.9127,0,0,1-1.1358-1.044,8.79,8.79,0,0,0-1.748-4.0947,4.6475,4.6475,0,0,1-1.1006-2.564c0-.1841.0146-.3467.0146-.3511l.0108-.1176-.0742-.0943a5.97,5.97,0,0,1-1.0039-2.7065,1.512,1.512,0,0,1,.0839-.54L98.6318,6.2,98.56,6.0674a3.7239,3.7239,0,0,1-.3379-1.7222,1.3224,1.3224,0,0,1,.0713-.5513l.1123-.1225-.0684-.13a3.4464,3.4464,0,0,1-.1113-.605,1.7668,1.7668,0,0,0,.3389.43l.6132.5039-.1269-.7837a3.6686,3.6686,0,0,1,.0527-1.4175c.0635.2364.1475.5367.2588.92a34.8947,34.8947,0,0,0,1.7588,4.5494c.6582,1.476,1.6064,3.1723,1.9639,3.811l.122.2192c.24.4366,1.1153,1.8018,1.7149,2.6534a13.96,13.96,0,0,0,1.3047,1.5786l.19.1933.2119-.1709s.3-.2412.9863-.8593a22.1275,22.1275,0,0,0,2.1211-2.231c.3819-.459.76-.9673,1.0176-1.32a7.803,7.803,0,0,0,.6406-1,1.1072,1.1072,0,0,1,.0938-.1587c.0469-.065.0888-.1231.1279-.1753a.6957.6957,0,0,0,.0371.1035l.3184.6924c-.0147.0557-.03.1064-.0459.1523-.16.4575-.4326,1.2-.8262,2.1358a11.0569,11.0569,0,0,1-1.3672,1.8261c-.2334.274-.4443.5215-.5928.7178a2.6947,2.6947,0,0,0-.5732,1.2285l-.1084.5625.5088-.1562a14.6478,14.6478,0,0,1,1.9424-.4346l.3535-.0654a2.8627,2.8627,0,0,0,1.2832-.5059,2.1993,2.1993,0,0,0,.2354-.2578,1.28,1.28,0,0,1,1.03-.6133,2.7622,2.7622,0,0,1,.4805.0782,6.6025,6.6025,0,0,0,.917.1464A1.7994,1.7994,0,0,0,114.7734,15.5039Z" transform="translate(0 -0.6839)" fill-rule="evenodd"/>
  <path d="M99.2437,10.17a5.65,5.65,0,0,0-1.2983.3164,6.4075,6.4075,0,0,0-3.9162,5.3252,7.4788,7.4788,0,0,0,1.76,5.9112,8.0623,8.0623,0,0,1-.8941-6.6956A5.9716,5.9716,0,0,1,98.67,11.0048a4.741,4.741,0,0,1,.6543-.1939A2.9215,2.9215,0,0,1,99.2437,10.17Z" transform="translate(0 -0.6839)" fill-rule="evenodd"/>
</svg>
