<svg xmlns="http://www.w3.org/2000/svg" width="159" height="21" viewBox="0 0 159 21">
  <title>equinox-form-logo</title>
  <path d="M59.62.23h3.44v9.7a7.22,7.22,0,1,1-14.44,0V.23h3.44v9.7a3.78,3.78,0,1,0,7.56,0ZM76.43,17.16h3.44V.23H76.43Zm-73-6.79h7V7h-7V3.59h7.2V.23H0V17.16H10.86V13.8H3.44ZM33,16.86c.77.95,3.09,1.49,5.18,1.16l-2.82,3C32,21,28.74,18.29,28,17.12a8.66,8.66,0,0,1-6.33-8.43,8.43,8.43,0,1,1,16.85,0A8.7,8.7,0,0,1,33,16.86Zm2.09-8.17a5,5,0,1,0-10,0,5,5,0,1,0,10,0Zm117.64-.33,5.8-8.15h-4.27l-3.66,5.15L146.9.21h-4.28l5.82,8.15-6.24,8.8h4.27l4.13-5.8,4.13,5.8H159l-6.31-8.8Zm-23.11-3a5.18,5.18,0,0,1,1.16,3.29,5.07,5.07,0,0,1-5,5.15,4.83,4.83,0,0,1-1.81-.36l-2.06,2.94a8.28,8.28,0,0,0,3.87,1,8.55,8.55,0,0,0,8.42-8.7,8.77,8.77,0,0,0-2.54-6.21L129.58,5.4Zm-25.71,5.37L96,.21H92.7V17.14h3.44V6.22l8.14,10.92h3V.23h-3.44Zm16.89-2.08a5.07,5.07,0,0,1,5-5.14,4.6,4.6,0,0,1,1.85.38L129.65,1a8.22,8.22,0,0,0-3.91-1,8.55,8.55,0,0,0-8.42,8.7A8.78,8.78,0,0,0,119.9,15L122,12.05a5.27,5.27,0,0,1-1.2-3.36Z" fill="#000000"/>
</svg>
