<svg xmlns="http://www.w3.org/2000/svg" width="188" height="26" viewBox="0 0 188 26">
  <title>rocket-engine-logo-white-small</title>
  <g>
    <g>
      <path d="M32.41,0c1.8484,0,3.5135.1381,4.9556,1.4056a6.6274,6.6274,0,0,1,2.2228,4.875,7.2672,7.2672,0,0,1-1.5934,4.3388,6.1841,6.1841,0,0,1-3.3781,1.9175l5.2185,7.3937H35.43l-5.0114-7.6294v7.6294H26.881V0Zm2.7646,8.6612A3.02,3.02,0,0,0,36.0512,6.5a2.8515,2.8515,0,0,0-.9959-2.2425,3.6893,3.6893,0,0,0-2.6371-.6663h-2V9.49h1.9361A4.0538,4.0538,0,0,0,35.1748,8.6612Z" transform="translate(0 0)" fill="#fff"/>
      <path d="M48.456,20.4181a7.8109,7.8109,0,0,1-7.5688-7.93,7.61,7.61,0,1,1,15.2172-.0075v.0075a7.7774,7.7774,0,0,1-7.616,7.93Zm-4.1349-7.93A4.27,4.27,0,0,0,48.43,16.9075l.0263.0006a4.2147,4.2147,0,0,0,4.2174-4.2135q.0011-.1033-.0028-.2065a4.3267,4.3267,0,0,0-4.1649-4.4758l-.05-.0011A4.3921,4.3921,0,0,0,44.3211,12.4881Z" transform="translate(0 0)" fill="#fff"/>
      <path d="M65.0754,20.4181a7.6677,7.6677,0,0,1-5.322-2.2425A8.0779,8.0779,0,0,1,57.4349,12.35a7.7514,7.7514,0,0,1,7.6166-7.8488,7.51,7.51,0,0,1,7.13,5.4519h-3.88a3.5342,3.5342,0,0,0-3.3064-1.9419,4.1261,4.1261,0,0,0-4.1328,4.121q-.0015.1374.0059.2747a4.2512,4.2512,0,0,0,3.9763,4.4972q.1668.0087.3339.004A3.6835,3.6835,0,0,0,68.3021,15.08h3.88A7.5232,7.5232,0,0,1,65.0754,20.4181Z" transform="translate(0 0)" fill="#fff"/>
      <path d="M78.03,0V12.025l4.597-7.0363h4.0553l-5.1706,7.3125,6.0231,7.6294h-4.597L78.03,12.9431v6.9875H74.5961V0Z" transform="translate(0 0)" fill="#fff"/>
      <path d="M93.0161,0V3.25H89.5822V0Zm0,4.9887V19.9306H89.5822V4.9887Z" transform="translate(0 0)" fill="#fff"/>
      <path d="M94.6254,8.1737V4.9887h1.6811V0H99.74V4.9887h2.0635v3.185H99.74V19.9306H96.3065V8.1737Z" transform="translate(0 0)" fill="#fff"/>
      <path d="M116.6146,0V3.5912h-6.7162V8.1737H116.32v3.5832h-6.43v4.5906h6.7163v3.5831H106.361V0Z" transform="translate(0 0)" fill="#fff"/>
      <path d="M122.6139,4.9887V6.3619a4.8926,4.8926,0,0,1,3.9835-1.8607,5.6167,5.6167,0,0,1,4.0633,1.8607,2.7281,2.7281,0,0,1,.3665.4387c1.1074,1.625,1.1313,3.4775,1.1313,5.3869v7.7431h-3.4338V12.8944a7.5512,7.5512,0,0,0-.59-3.64A2.72,2.72,0,0,0,125.88,8.0112a2.8544,2.8544,0,0,0-2.39,1.3244,7.9331,7.9331,0,0,0-.5737,3.8269v6.7681h-3.4338V4.9887Z" transform="translate(0 0)" fill="#fff"/>
      <path d="M149.3356,17.6637a7.8025,7.8025,0,0,1-2.0157,5.7769A7.8973,7.8973,0,0,1,141.6314,26a7.6045,7.6045,0,0,1-7.0987-4.9319h3.8959a4.6114,4.6114,0,0,0,3.1869,1.4219,4.7277,4.7277,0,0,0,3.1868-1.235,5.1239,5.1239,0,0,0,1.3624-3.3963,5.74,5.74,0,0,1-4.6209,2.5594,7.4955,7.4955,0,0,1-5.1149-2.3481,8.6544,8.6544,0,0,1-2.1432-5.8256,8.0866,8.0866,0,0,1,1.952-5.2082,7.2235,7.2235,0,0,1,5.4256-2.535,4.919,4.919,0,0,1,4.5173,2.535V4.9887h3.1869ZM138.8987,9.3356a4.2308,4.2308,0,0,0-1.1393,3.0469,4.1758,4.1758,0,1,0,8.3363.4783q.01-.174.0052-.3483a4.32,4.32,0,0,0-4.1245-4.4988q-.0808-.0029-.1618-.0025A4.02,4.02,0,0,0,138.8987,9.3356Z" transform="translate(0 0)" fill="#fff"/>
      <path d="M155.4384,0V3.25h-3.4338V0Zm0,4.9887V19.9306h-3.4338V4.9887Z" transform="translate(0 0)" fill="#fff"/>
      <path d="M161.3819,4.9887V6.3619a4.9007,4.9007,0,0,1,3.9835-1.8607,5.6476,5.6476,0,0,1,4.0872,1.8607,3.17,3.17,0,0,1,.3585.4387c1.1074,1.625,1.1393,3.4775,1.1393,5.3869v7.7431h-3.4418V12.8944a7.5512,7.5512,0,0,0-.59-3.64,2.7193,2.7193,0,0,0-2.2706-1.2432,2.8546,2.8546,0,0,0-2.39,1.3244,7.9343,7.9343,0,0,0-.5736,3.8269v6.7681h-3.4338V4.9887Z" transform="translate(0 0)" fill="#fff"/>
      <path d="M180.5029,16.9081a4.345,4.345,0,0,0,3.1869-1.2919h3.7923a7.4855,7.4855,0,0,1-6.8676,4.8019,7.7047,7.7047,0,0,1-7.5449-7.8487,7.7993,7.7993,0,0,1,7.51-8.0664l.0832-.0018C184.7494,4.5012,188,8.1737,188,12.35a12.1535,12.1535,0,0,1-.1832,1.6981H176.7345A3.93,3.93,0,0,0,180.5029,16.9081Zm.1594-8.8969a4.1964,4.1964,0,0,0-3.9836,2.86h7.88A4.0631,4.0631,0,0,0,180.6623,8.0112Z" transform="translate(0 0)" fill="#fff"/>
    </g>
    <path d="M10.0067.7312H19.95a1.7462,1.7462,0,0,1,1.7288,1.7632v.0568A1.7462,1.7462,0,0,1,19.95,4.3144h-9.943A1.7463,1.7463,0,0,1,8.2778,2.5512V2.4944A1.7463,1.7463,0,0,1,10.0067.7312Z" transform="translate(0 0)" fill="#fff"/>
    <path d="M10.0067,15.8437H19.95a1.7462,1.7462,0,0,1,1.7288,1.7632v.0568A1.7462,1.7462,0,0,1,19.95,19.4269h-9.943a1.7463,1.7463,0,0,1-1.7289-1.7632v-.0568A1.7463,1.7463,0,0,1,10.0067,15.8437Z" transform="translate(0 0)" fill="#fff"/>
    <path d="M1.7289,8.2875H19.95a1.7462,1.7462,0,0,1,1.7288,1.7631v.0569A1.7462,1.7462,0,0,1,19.95,11.8706H1.7289A1.7462,1.7462,0,0,1,0,10.1075v-.0569A1.7462,1.7462,0,0,1,1.7289,8.2875Z" transform="translate(0 0)" fill="#fff"/>
  </g>
</svg>
