<svg xmlns="http://www.w3.org/2000/svg" width="110" height="32" viewBox="0 0 110 32">
  <title>cartier-logo</title>
  <path d="M23.28,0a12.0342,12.0342,0,0,0-3.1307.4154S14.3061,1.9321,7.8662,8.2219a37.2222,37.2222,0,0,0-5.2458,7.45,26.7612,26.7612,0,0,0-2.6015,8.03s-.3412,4.1039,1.8765,6.2c0,0,2.5589,2.4535,8.1458,1.9628A19.11,19.11,0,0,0,17.3341,28.92a27.2881,27.2881,0,0,0,3.028-2.4088,5.7407,5.7407,0,0,0,.2559,3.6133,3.7533,3.7533,0,0,0,2.5163,1.74,5.9709,5.9709,0,0,0,3.1133-.4461s1.1515-.5353,1.9192-.9368A25.3551,25.3551,0,0,0,31.28,28.34a3.3068,3.3068,0,0,0,.3839,2.32,3.3414,3.3414,0,0,0,2.303,1.3382s4.0089.3123,9.5958-6.87L39.6392,31.73l3.5825-.0447,3.1133-5.6206s3.2413-5.799,3.9236-6.5128a7.8859,7.8859,0,0,1,4.18-2.8549l1.6633.1338a1.3633,1.3633,0,0,1,.6823,1.16L55.547,17.768a1.5419,1.5419,0,0,0-1.1088.8922,2.717,2.717,0,0,0-.1706,1.5166,1.5236,1.5236,0,0,0,.7676.8476l.3839.1338,1.2368-.1784s2.175-.8476,5.16-4.7731L61.134,17.5l-2.5163,4.5054L55.675,27.448s-.853,1.7843-.4692,2.8549a2.2778,2.2778,0,0,0,1.6633,1.2936l2.7722-.223a8.5869,8.5869,0,0,0,2.8574-1.6505l1.8339-1.5613a51.2566,51.2566,0,0,0,4.2222-4.2824l-.128.1785A40.2109,40.2109,0,0,0,66.38,28.5186s-.6824,2.3642.8956,3.301l1.7912.1784A7.35,7.35,0,0,0,72.0519,30.66l2.431-2.1858A41.1378,41.1378,0,0,0,77.6815,24.95a11.5139,11.5139,0,0,0-.6824,2.32,4.2849,4.2849,0,0,0,2.3457,4.3716l2.6015.2231a11.206,11.206,0,0,0,2.6016-.6691s3.6677-1.2491,8.8282-6.2006c0,0,2.6015-2.498,4.4354-4.7284L91.329,31.6411h3.1986l2.3883-4.1931,3.0707-5.2192a15.4861,15.4861,0,0,1,4.9472-4.773,8.1875,8.1875,0,0,1,2.26-.9814s1.0235-.2231,1.2368.3122a1.4964,1.4964,0,0,0-1.7913,1.2491s-.3412,1.5612.853,2.0519a1.9,1.9,0,0,0,1.6206-.223,2.65,2.65,0,0,0,.853-1.4275,2.55,2.55,0,0,0-.2559-1.6059,2.2535,2.2535,0,0,0-1.7059-.8921s-1.3221-.0446-3.9663,1.7843a23.85,23.85,0,0,0-2.7722,2.1858l2.1751-3.8809H100.2a43.0259,43.0259,0,0,1-8.487,10.126S86.4244,30.66,83.439,30.7936c0,0-2.9.223-3.1986-2.0966a7.5363,7.5363,0,0,1,.5971-3.3456,11,11,0,0,0,4.1795-.6245A18.0264,18.0264,0,0,0,89.1539,22.63a9.9022,9.9022,0,0,0,2.73-2.9441,3.3137,3.3137,0,0,0-.1279-3.1226s-1.7913-1.8289-5.6723-.1338a18.9192,18.9192,0,0,0-6.9943,5.8882l-.7677,1.2045-.0853.1338-2.1324,2.5873-2.175,2.275s-2.6442,2.7211-3.9663,1.9181a1.4694,1.4694,0,0,1-.5118-1.2044,4.1007,4.1007,0,0,1,.5971-1.8735l6.184-11.2413H73.4593s-1.5353,2.6319-3.3265,5.13A41.04,41.04,0,0,1,62.84,28.92s-2.6016,2.0966-4.0516,1.3829a1.2065,1.2065,0,0,1-.5971-1.16,4.9171,4.9171,0,0,1,.8956-2.23l6.0561-10.7952,3.3692-.0446.4265-.4461H65.5267L69.1518,8.891l-3.0706.0446s-2.1325,3.7917-3.7531,6.0667c0,0-2.9854,4.104-5.459,5.2192a2.9106,2.9106,0,0,0,.4692-1.4721l-.0427-.7137a2.1173,2.1173,0,0,0-1.0236-1.3829l-.7676-.223-1.45.1338A8.272,8.272,0,0,0,50.77,18.3925l1.3221-2.32H49.0218a67.7984,67.7984,0,0,1-6.3972,9.5907s-4.734,5.71-7.3355,5.0408a1.6747,1.6747,0,0,1-.81-1.3829,5.182,5.182,0,0,1,.81-2.3642l6.184-10.929-3.0707.0446-.9809,1.7843-.64,1.2937a3.0537,3.0537,0,0,0,0-1.2491,2.9081,2.9081,0,0,0-2.09-2.4088l-1.45-.1338s-3.6677-.0446-7.8473,3.7917a28.82,28.82,0,0,0-5.0325,6.7358s-4.35,4.2378-8.9561,5.1745c0,0-4.0942.8922-5.8428-1.026A8.6512,8.6512,0,0,1,3.644,24.4146a25.0915,25.0915,0,0,1,2.9427-9.9922,82.5139,82.5139,0,0,1,4.9472-6.87s4.7767-5.4868,9.7239-6.87c0,0,4.0516-1.1152,6.3119.8029a7.2892,7.2892,0,0,1,2.09,4.9962l1.1088-1.9628A28.3434,28.3434,0,0,1,33.4125.8615a9.67,9.67,0,0,1-2.5589.7138,5.0546,5.0546,0,0,1-2.6015-.3123A9.6977,9.6977,0,0,0,23.28,0ZM33.6951,15.7634a2.8628,2.8628,0,0,1,1.8925.6218c1.4927,1.4274.2985,4.1039.2985,4.1039a26.95,26.95,0,0,1-5.6722,8.0295l-2.0471,1.5166c-3.1986,1.6505-4.5634.4907-4.5634.4907-1.1088-.9813-.64-3.2118-.64-3.2118a16.8766,16.8766,0,0,1,1.4927-3.7024l2.303-3.5241A17.2394,17.2394,0,0,1,31.2375,16.43,5.3091,5.3091,0,0,1,33.6951,15.7634Zm54.8631.3931a1.1239,1.1239,0,0,1,.1266.0056,1.8035,1.8035,0,0,1,.9809.4461,2.1636,2.1636,0,0,1,.2132,1.3382,7.7037,7.7037,0,0,1-2.73,4.5947s-2.8574,2.5426-6.184,2.4534l.64-1.3828a24.7113,24.7113,0,0,1,3.5824-5.2192S87.2286,16.1735,88.5582,16.1565Z"/>
</svg>
