<svg xmlns="http://www.w3.org/2000/svg" width="158.03" height="104.61" viewBox="0 0 158.03 104.61">
  <title>grey-goose-logo-black-v</title>
  <path d="M141,90V87.4a7.73,7.73,0,0,0-3.4-.8c-1.6,0-4.9,1-5,4.6-.1,3.2,1.8,3.7,3.5,4.8,1.3.9,2.9,1.6,2.9,3.1,0,1.2-.8,2.5-2.9,2.3-1.1-.1-2.8-1.9-2.8-1.9v3.3a12.09,12.09,0,0,0,3.8.6c1.8-.2,4-1.2,4.4-2.9.5-2,.3-4.2-1.6-5.5-1-.7-3.1-1.7-3.4-2.1a2.53,2.53,0,0,1-1.2-2.4,2.35,2.35,0,0,1,2.3-1.9A4.76,4.76,0,0,1,141,90ZM49.1,86.8h3.8a1.7,1.7,0,0,0,0,1c.2.5,3,5.3,3,5.3L58.7,88a1.48,1.48,0,0,0,.1-.7v-.6h3.4l-5,8.8v6.2c0,.2.1.4.1.7a2,2,0,0,0,.2.6H54.2l.2-.6a1.7,1.7,0,0,0,.1-.7V95.6l-4-7a3.59,3.59,0,0,0-.7-1,5.72,5.72,0,0,1-.7-.8Zm97.4,16.3a4.48,4.48,0,0,0,.5-2.3V89.2a6.75,6.75,0,0,0-.2-1.4c-.1-.4-.3-.7-.4-1.1h9.1l-1.4,2.6s-.8-.4-1.3-.6a5.66,5.66,0,0,0-1.8-.3h-1.3V94h5.1l-1.4,2.4s-.4-.2-.9-.4a4.67,4.67,0,0,0-1.7-.3h-1v5.8a24.2,24.2,0,0,0,3.8-.2,24.69,24.69,0,0,0,2.9-1l-1.2,2.9ZM85.3,90V87.3s-12.7-3.9-13.7,8.1c-.5,5.6,4.9,8.1,8.7,8.1a19.42,19.42,0,0,0,6.3-1.1,7,7,0,0,1-.3-1.4V97.2a7.38,7.38,0,0,1,.2-1.2l.3-.9H82.5l.6.9a4.19,4.19,0,0,1,.4,1.6l.1,3.3a7,7,0,0,1-3.1.7c-2.3-.1-6.3-1.8-6.4-5.8-.1-2.6.6-6.1,4.6-6.9C81.3,88.1,83.9,89.3,85.3,90ZM36.1,103.1a4.48,4.48,0,0,0,.5-2.3V89.2a6.75,6.75,0,0,0-.2-1.4,5.36,5.36,0,0,0-.5-1.1H45l-1.4,2.6s-.8-.4-1.3-.6a5.66,5.66,0,0,0-1.8-.3H39.2V94h5.1L43,96.4s-.4-.2-.9-.4a4.67,4.67,0,0,0-1.7-.3h-1v5.8a24.2,24.2,0,0,0,3.8-.2,24.69,24.69,0,0,0,2.9-1l-1.2,2.9ZM13.7,90V87.3S1,83.4,0,95.4c-.5,5.6,4.9,8.1,8.7,8.1a19,19,0,0,0,6.3-1.1,3.53,3.53,0,0,1-.3-1.4V97.2a7.38,7.38,0,0,1,.2-1.2l.3-.9H11l.6.9a4.19,4.19,0,0,1,.4,1.6l.1,3.3a7.11,7.11,0,0,1-3.2.7c-2.3-.1-6.3-1.8-6.4-5.8-.1-2.6.6-6.1,4.6-6.9C9.8,88.1,12.3,89.3,13.7,90Z" transform="translate(0.03 0.03)"/>
  <polygon points="36.23 103.83 36.73 104.23 45.73 104.23 47.63 99.93 46.83 100.23 45.33 103.83 36.23 103.83"/>
  <path d="M40,100.8V96.3h.7a4.25,4.25,0,0,1,1.1.2l1.5.6L45.1,94H46l-2.2,3.6L42.2,97a5,5,0,0,0-1.2-.2h-.6v4Z" transform="translate(0.03 0.03)"/>
  <path d="M40,93.4V89h.6a2,2,0,0,1,.8.1l.9.3,1.6.8,1.8-3.3.5.6-1.8,3.2-1.6-.8a1.42,1.42,0,0,0-.6-.2,3.4,3.4,0,0,0-1-.1h-.9v3.9Z" transform="translate(0.03 0.03)"/>
  <polygon points="146.63 103.83 147.13 104.23 156.23 104.23 158.03 99.93 157.23 100.23 155.73 103.83 146.63 103.83"/>
  <path d="M150.4,100.8V96.3h.7a4.25,4.25,0,0,1,1.1.2l1.5.6,1.8-3.1h.8l-2.1,3.6-1.6-.6a5,5,0,0,0-1.2-.2h-.6v4Z" transform="translate(0.03 0.03)"/>
  <path d="M150.4,93.4V89h.6a2,2,0,0,1,.8.1l.9.3,1.6.8,1.8-3.3.4.6-1.7,3.2-1.6-.8a1.42,1.42,0,0,0-.6-.2,3.4,3.4,0,0,0-1-.1h-.9v3.9Z" transform="translate(0.03 0.03)"/>
  <path d="M24.4,94.4l-.5.1V89l1,.3A4.13,4.13,0,0,1,26,90a6.39,6.39,0,0,0-1-.4,1.27,1.27,0,0,0-.6-.1v4.9Z" transform="translate(0.03 0.03)"/>
  <path d="M27.5,96.2a5.18,5.18,0,0,0,2.2-7.3,4.87,4.87,0,0,1,.7,5.4,5.28,5.28,0,0,1-2.5,2.4l-.4-.5Z" transform="translate(0.03 0.03)"/>
  <path d="M20.1,104.3l.2-.5h4.3l-.4-1.1a1.85,1.85,0,0,1-.2-.7l-.1-.7V97.6l.5.6v3.7a1.7,1.7,0,0,0,.1.7l.6,1.8Z" transform="translate(0.03 0.03)"/>
  <polygon points="29.73 103.83 30.23 104.23 33.13 104.23 32.73 103.83 29.73 103.83"/>
  <path d="M4.6,98.6s-1.4-1.3-.5-5.2a4.74,4.74,0,0,1,4.8-3.7,10.27,10.27,0,0,1,5.9,1.8V87.4h0l-.4-.1v3.6a13.73,13.73,0,0,0-5.5-1.8,4.85,4.85,0,0,0-5.3,3.8c-1.1,4,1,5.7,1,5.7Z" transform="translate(0.03 0.03)"/>
  <path d="M2.7,102.1A9.62,9.62,0,0,0,8.8,104a18.1,18.1,0,0,0,6.9-1.4,6.89,6.89,0,0,0-.3-.8,3.81,3.81,0,0,1-.1-1.5V97.2a3.55,3.55,0,0,1,.2-1,4.18,4.18,0,0,1,.4-1h.6a6.64,6.64,0,0,0-.6,2c-.1.7-.1,3.9-.1,3.9a5.7,5.7,0,0,0,.1,1.3,2.92,2.92,0,0,1,.2.9s-.4.4-3.1.9C6,105.5,2.7,102.1,2.7,102.1Z" transform="translate(0.03 0.03)"/>
  <path d="M54.3,103.7h4.2l-.3-.8a2.66,2.66,0,0,1-.3-1.2V95.8l5-8.9h.8l-5.4,9.5v6.3a1.21,1.21,0,0,0,.1.5l.5,1.1H54.2l.1-.6Z" transform="translate(0.03 0.03)"/>
  <path d="M56,91.7l-.1.2-2.4-4.2c0-.1-.1-.1-.1-.2v-.6h.5s-.1.6-.1.7v.7c.2,0,2.2,3.5,2.2,3.4Z" transform="translate(0.03 0.03)"/>
  <path d="M76.2,98.6s-1.4-1.3-.5-5.2a4.74,4.74,0,0,1,4.8-3.7,10.27,10.27,0,0,1,5.9,1.8V87.4h0l-.4-.1v3.6a13.73,13.73,0,0,0-5.5-1.8,4.85,4.85,0,0,0-5.3,3.8c-1.1,4,1,5.7,1,5.7Z" transform="translate(0.03 0.03)"/>
  <path d="M74.2,102.1a9.62,9.62,0,0,0,6.1,1.9,17.72,17.72,0,0,0,6.9-1.4c-.1-.3-.2-.5-.3-.8a7.72,7.72,0,0,1-.2-1.5V97.2a3.55,3.55,0,0,1,.2-1,4.18,4.18,0,0,1,.4-1H88a4.66,4.66,0,0,0-.6,2c-.1.7,0,3.9,0,3.9a3,3,0,0,0,.2,1.3,2.92,2.92,0,0,1,.2.9s-.4.4-3.1.9c-7.2,1.5-10.5-1.9-10.5-1.9Z" transform="translate(0.03 0.03)"/>
  <path d="M102.6,90.2a5.23,5.23,0,0,0-5.1-1,5.64,5.64,0,0,0-3.4,4.7,6.58,6.58,0,0,0,1.5,5.2,7,7,0,0,1-.8-5.8,5.47,5.47,0,0,1,3.3-3.5A5.08,5.08,0,0,1,102.6,90.2Z" transform="translate(0.03 0.03)"/>
  <path d="M107.3,89.7a9.51,9.51,0,0,1,1.5,5.9,9.38,9.38,0,0,1-10.5,8.2,11.22,11.22,0,0,1-4.3-1.6,9.48,9.48,0,0,0,4.8,2.1,9.37,9.37,0,0,0,6.5-1.6,9.2,9.2,0,0,0,3.9-7.4A9.45,9.45,0,0,0,107.3,89.7Z" transform="translate(0.03 0.03)"/>
  <path d="M123.6,90.3a5.23,5.23,0,0,0-5.1-1,5.64,5.64,0,0,0-3.4,4.7,6.58,6.58,0,0,0,1.5,5.2,7,7,0,0,1-.8-5.8,5.47,5.47,0,0,1,3.3-3.5A5.11,5.11,0,0,1,123.6,90.3Z" transform="translate(0.03 0.03)"/>
  <path d="M128.3,89.8A9.33,9.33,0,0,1,115,102.3a9.86,9.86,0,0,0,4.8,2.1,9.37,9.37,0,0,0,6.5-1.6,8.84,8.84,0,0,0,3.8-7.4A9.36,9.36,0,0,0,128.3,89.8Z" transform="translate(0.03 0.03)"/>
  <path d="M136.6,92.2a1.63,1.63,0,0,1,1.3-2.9,4.2,4.2,0,0,1,2.6,1.2,4,4,0,0,0-1.8-.7,1.83,1.83,0,0,0-2.1,1.1,1.47,1.47,0,0,0,0,1.3Z" transform="translate(0.03 0.03)"/>
  <polygon points="142.13 91.83 141.73 91.43 141.73 87.73 142.13 88.13 142.13 91.83"/>
  <path d="M133.4,103.7v-.3a15.94,15.94,0,0,0,3,.6,7.67,7.67,0,0,0,4.4-1.4,4.51,4.51,0,0,0,1.6-3.6,6.09,6.09,0,0,0-.8-3.2,5.92,5.92,0,0,1,1.3,2.9c.3,2.3-1,6-6.5,5.7a9.42,9.42,0,0,1-3-.7Z" transform="translate(0.03 0.03)"/>
  <path d="M55.2.1a13.32,13.32,0,0,0-1.3,8.1s-1.2-1-2.4-4.5c0,0-.1-.2-.2,0a14.43,14.43,0,0,0,.2,6.2,4.33,4.33,0,0,0-.4,2.4,12.55,12.55,0,0,0,1.3,6.3,5.22,5.22,0,0,0-.4,2.1c0,4.1,3.2,9.2,3.6,9.7a8.87,8.87,0,0,0-.1,1.3c0,7.4,8.3,11.1,9.6,22.7a17.7,17.7,0,0,0,4.2,4s-.3.4-2.7,3.3-4.2,5-6.1,5.3c-.1,0-.1.1,0,.2s.8.8,3.1.8a3.32,3.32,0,0,1-1.6.5c-.1,0-.1.1,0,.1A14.58,14.58,0,0,0,69.1,70c17.2-.9,24.3-14,33.2-16.6a8.09,8.09,0,0,0,5.8-3,17.88,17.88,0,0,1,3.2-1.3,1.38,1.38,0,0,0,.9-.7c0-.1,0-.5-.7-.5H110c-2.6,0-4.6-.8-5.8-.8-2.9,0-4,2.4-4.9,3.2a9.46,9.46,0,0,1-3.8,1.5,66.35,66.35,0,0,0-7.9,1.7,7.34,7.34,0,0,1,1.8-4c1.6-2.1,5.2-5.8,6.7-8.7,1.4-3.2,2.3-5.7,2.8-7.2s.8-4.7,3.1-8c.1-.1.3-.7-.2-.4s-3.6,3-3.9,4.8a2.19,2.19,0,0,1,.3-2.2c.1-.1.2-.4-.2-.1a9.17,9.17,0,0,0-2.3,2.5,42.5,42.5,0,0,1-2.5,3.9c-.9,1.2-2.1,2.9-3.4,4.4a81.63,81.63,0,0,1-7,7.4c-2.3,2-3.3,2.8-3.3,2.8a44,44,0,0,1-4.3-5.2c-2.1-2.9-4.9-7.4-5.7-8.8s-4.4-7.8-7-13.4A114.75,114.75,0,0,1,56.7,6.2,56.58,56.58,0,0,1,55.2.3C55.3-.1,55.3-.1,55.2.1Z" transform="translate(0.03 0.03)"/>
  <path d="M28.6,98.7a17.26,17.26,0,0,1-1.9-2.8,4.62,4.62,0,0,0,3.1-4.5c-.1-4.5-5.5-4.5-5.5-4.5H20.2c.1.3.2.7.3,1a2.77,2.77,0,0,1,.1.9v13.3c-.1.4-.2.7-.3,1.1h3.5l-.3-1a3.4,3.4,0,0,1-.1-1V95.7a48,48,0,0,0,3,3.8c1.6,1.8,3.4,3.6,3.4,3.6h2.7A31.78,31.78,0,0,1,28.6,98.7Zm-5.3-3.4v-7s4,.1,4,3.2C27.2,95.1,23.3,95.3,23.3,95.3Z" transform="translate(0.03 0.03)"/>
  <path d="M108,92.8a8.69,8.69,0,1,0-7,10.4.37.37,0,0,0,.3-.1A8.68,8.68,0,0,0,108,92.8Zm-7.4,8.7c-3.3.6-6.4-1.9-7.1-5.5s1.5-7,4.7-7.6,6.4,1.9,7.1,5.5A6.27,6.27,0,0,1,100.6,101.5Z" transform="translate(0.03 0.03)"/>
  <path d="M128.9,92.9a8.69,8.69,0,1,0-7,10.4.37.37,0,0,0,.3-.1A8.68,8.68,0,0,0,128.9,92.9Zm-7.3,8.7c-3.3.6-6.4-1.9-7.1-5.5s1.5-7,4.8-7.6,6.4,1.9,7.1,5.5A6.46,6.46,0,0,1,121.6,101.6Z" transform="translate(0.03 0.03)"/>
</svg>
