<svg xmlns="http://www.w3.org/2000/svg" width="108" height="32" viewBox="0 0 108 32">
  <title>away-logo</title>
  <g>
    <polygon points="67.212 18.003 71.82 18.003 69.516 12.686 67.212 18.003" fill="#111"/>
    <polygon points="20.376 18.003 25.002 18.003 22.68 12.686 20.376 18.003" fill="#111"/>
    <path d="M0,0V32H108V0ZM27.288,23.2482s-.99-2.2813-1.026-2.2813h-7.2l-.99,2.2813H14.526L21.312,8.7158h2.736l6.786,14.5324Zm26.172.018H50.724L46.098,13.35l-4.626,9.9158H38.736L31.95,8.7338h3.546l4.59,10.5625,4.59-10.5625h2.772L52.11,19.2963,56.7,8.7338h3.546Zm20.664-.018s-.99-2.2813-1.008-2.2813h-7.2l-.99,2.2813H61.38L68.148,8.7158h2.736L77.67,23.2482Zm13.428-5.6944v5.7124H84.33V17.5538l-5.904-8.82h3.888c-.036,0,3.618,5.4249,3.618,5.4249l3.636-5.4249h3.888Z" fill="#111"/>
  </g>
</svg>
