<svg xmlns="http://www.w3.org/2000/svg" width="160" height="34" viewBox="0 0 160 34">
  <title>jh-legends-logo</title>
  <path d="M43.3939,32.9882h3.0672v.8254H42.5138V27.9828h3.8139v.8253H43.3939v1.5975h2.7205v.8254H43.3939Zm8.6148-2.1832a3.1113,3.1113,0,0,0-.6935-.2662,3.9388,3.9388,0,0,1-.6668-.213,1.8131,1.8131,0,0,1-.5067-.2929A.65.65,0,0,1,49.955,29.5a1.1736,1.1736,0,0,1,.0533-.2663.5527.5527,0,0,1,.16-.2662.9582.9582,0,0,1,.32-.213,1.5,1.5,0,0,1,.5334-.08,1.3608,1.3608,0,0,1,.5868.1331,1.2552,1.2552,0,0,1,.4.3462l.0266.0532.72-.639-.0267-.0266a1.5138,1.5138,0,0,0-.7735-.5325,3.3914,3.3914,0,0,0-.9068-.1331,2.3022,2.3022,0,0,0-.9068.16,2.0357,2.0357,0,0,0-.6134.3994,1.3118,1.3118,0,0,0-.3468.5325,1.3883,1.3883,0,0,0-.1066.5591,1.7472,1.7472,0,0,0,.2133.9053,1.698,1.698,0,0,0,.5334.5325,3.28,3.28,0,0,0,.6935.32c.24.08.48.16.6668.213a1.337,1.337,0,0,1,.5067.2928.5691.5691,0,0,1,.1867.4793.7508.7508,0,0,1-.1067.3994,1.3933,1.3933,0,0,1-.2667.2928,1.4345,1.4345,0,0,1-.3467.1864,1.5372,1.5372,0,0,1-1.04-.08,1.184,1.184,0,0,1-.5067-.4526l-.0267-.0532-.72.6123.0267.0267a2.0152,2.0152,0,0,0,.8.6123A2.9061,2.9061,0,0,0,50.7551,34a2.5209,2.5209,0,0,0,.8-.1331,2.4588,2.4588,0,0,0,.64-.3461,1.5886,1.5886,0,0,0,.4267-.5858,1.8177,1.8177,0,0,0,.16-.7721,1.6107,1.6107,0,0,0-.2133-.852,1.4343,1.4343,0,0,0-.56-.5059m2.7738-1.9969h1.84v5.0055h.88V28.8081h1.84v-.8253H54.7558v.8253Zm14.4824,2.343a1.5583,1.5583,0,0,1,.2667.4527,2.0714,2.0714,0,0,1,.1067.5591,1.5833,1.5833,0,0,1-.16.7189,1.3833,1.3833,0,0,1-.4534.5058,2.2166,2.2166,0,0,1-.6668.3195,2.53,2.53,0,0,1-.8.1065h-2.027V27.9828h2.0537a2.9139,2.9139,0,0,1,.6934.08,1.818,1.818,0,0,1,.56.2663,1.04,1.04,0,0,1,.3734.4526,1.642,1.642,0,0,1,.1334.6656,1.32,1.32,0,0,1-.2934.852,1.2866,1.2866,0,0,1-.5868.3994,1.73,1.73,0,0,1,.3468.1065,1.27,1.27,0,0,1,.4534.3461m-2.8272-.7987h1.0135a2.0558,2.0558,0,0,0,.4-.0533.89.89,0,0,0,.32-.1331.92.92,0,0,0,.2133-.24.7715.7715,0,0,0,.08-.3728.8587.8587,0,0,0-.2133-.5591.7885.7885,0,0,0-.64-.24H66.4377Zm2.16,2.21a.7605.7605,0,0,0,.1067-.4526.8407.8407,0,0,0-.32-.7189,1.4392,1.4392,0,0,0-.88-.24H66.4111v1.89h1.0935a1.8946,1.8946,0,0,0,.3734-.0266,1.5462,1.5462,0,0,0,.3734-.1332,1.0131,1.0131,0,0,0,.3467-.32m6.0277-4.5528,2.48,5.8042H76.0927l-.5868-1.4111H72.8388l-.56,1.4111H71.2652l.0267-.08,2.5337-5.7776h.7735Zm.5867,3.5944L74.199,29.1276l-1.0135,2.4762ZM80.36,27.9561h-.88V33.787h3.5206v-.8254H80.36V27.9561Zm4.9608,5.8575h.88V27.9828h-.88Zm8.0013-4.5-.0267.0266.5068.6124,1.0135-.9319v4.7925h.88V27.9828h-.7467Zm8.6415-.9319a1.6893,1.6893,0,0,1,.4267.6124,1.9067,1.9067,0,0,1,.16.7721,2.9419,2.9419,0,0,1-.0533.5059c-.0267.16-.08.2929-.1067.426a2.6869,2.6869,0,0,1-.1867.3994l-.24.3993-1.467,2.3164h-1.04l.0533-.08,1.36-2.1033a1.7012,1.7012,0,0,1-1.2-.0266,1.8936,1.8936,0,0,1-.5867-.3462,1.5876,1.5876,0,0,1-.4268-.5857,1.9832,1.9832,0,0,1-.16-.8254,1.9214,1.9214,0,0,1,.5868-1.4644,1.9262,1.9262,0,0,1,.64-.3727,2.5556,2.5556,0,0,1,1.5469,0,1.7282,1.7282,0,0,1,.6935.3727m-.3734,1.8638a1.3206,1.3206,0,0,0,0-.9053,1.1175,1.1175,0,0,0-.24-.3727,1.0138,1.0138,0,0,0-.3467-.24,1.2933,1.2933,0,0,0-.48-.08,1.3953,1.3953,0,0,0-.48.08,1.1168,1.1168,0,0,0-.3734.24.9031.9031,0,0,0-.24.3727,1.3206,1.3206,0,0,0,0,.9053,1.1175,1.1175,0,0,0,.24.3727.9028.9028,0,0,0,.3734.24,1.2923,1.2923,0,0,0,.48.08,1.3959,1.3959,0,0,0,.48-.08.8113.8113,0,0,0,.3467-.24,1.1175,1.1175,0,0,0,.24-.3727m3.0938-1.491h2.7471l-2.2937,4.9788-.0267.08h.9869l2.2937-5.112v-.7455h-3.7073Zm9.3082,1.8105a1.899,1.899,0,0,0-.5867-.3994,1.6992,1.6992,0,0,0-.7468-.1331h-.1867a.5889.5889,0,0,0-.2134.0266.5025.5025,0,0,0-.2134.0533c-.0266,0-.08.0266-.1066.0266l.0266-1.3046h2.32v-.8254h-3.1738l-.08,3.1417.08-.0266a2.3924,2.3924,0,0,1,.6134-.213,2.3527,2.3527,0,0,1,.5334-.08,1.5277,1.5277,0,0,1,.96.2929,1.1054,1.1054,0,0,1,.3734.9053,1.2886,1.2886,0,0,1-.08.4792.8108.8108,0,0,1-.24.3461.94.94,0,0,1-.3467.213,1.2249,1.2249,0,0,1-1.04-.08,1.1676,1.1676,0,0,1-.4-.5591l-.0267-.0532-.88.2928.0267.0533a1.7471,1.7471,0,0,0,.6935.8786,1.9488,1.9488,0,0,0,1.0935.3195,2.517,2.517,0,0,0,.8-.1331,1.7172,1.7172,0,0,0,.6668-.3994,1.75,1.75,0,0,0,.4534-.6124,1.9418,1.9418,0,0,0,.16-.7987,2.5058,2.5058,0,0,0-.1333-.7987,1.2726,1.2726,0,0,0-.3468-.6124M96.2294,12.4338c-.0534.1065-.9869,2.4761-.9869,2.4761-.2667.6657-1.1735,3.0885-1.44,3.8074H92.5488c.2933-.639.88-1.97,1.8669-4.2067L100.55.2929h.64l7.1478,16.2145c.4.9319.7468,1.7573.9335,2.2365h-2.8271c-.5068-1.1981-2.5871-6.177-2.64-6.31l-.08-.1864H96.336l-.1066.1864m.3734-.8786h6.8544l-.1867-.426c-.1066-.24-2.7471-6.603-2.9071-7.0023l-.2934-.6657-.2934.6657c-.0533.1065-.7468,1.7572-1.4936,3.4878-.72,1.6774-1.44,3.3814-1.4936,3.5145ZM160,.2929h-.9868c-.7468,1.1182-5.5476,8.36-5.681,8.6l-.2667.3994-.2667-.3994c-.16-.24-4.9608-7.4816-5.6809-8.6H143.944l1.8136,2.7423c1.707,2.556,4.9608,7.4018,5.0409,7.5083l.0533.08v8.1206h2.5338V10.3305l.0533-.08c.0534-.08,3.0405-4.6061,4.6141-7.0024C158.9332,1.89,159.6266.852,160,.2929M143.8106,9.5583a8.835,8.835,0,0,1-3.3339,7.1621c-2.267,1.7307-4.1073,1.9969-8.5614,1.9969h-3.3339V.2662h3.3339c4.4274,0,6.6678.5858,8.5081,1.97a8.8536,8.8536,0,0,1,3.3872,7.3218m-11.3085,8.5733c6.001,0,8.7748-2.9022,8.7748-8.36,0-5.4314-2.8805-8.8128-8.2147-8.8128-1.68,0-1.92.0266-1.947.0266l-.2934.0267V18.1582h.2934c.0267-.0533.2667-.0266,1.3869-.0266m-42.8872.6123V.2929h-2.56V8.9193H77.88V.2929H75.5059v18.451h2.4V9.585h9.1749v9.1589Zm-47.1011,0h2.5337V.2929H42.5138V8.9193H33.3122V.2929H30.7785v18.451h2.5337V9.585h9.2016ZM18.43,0c5.2009,0,8.9882,4.02,8.9882,9.5317,0,5.6179-3.7873,9.7181-8.9882,9.7181S9.4416,15.1762,9.4416,9.5317C9.4416,3.9937,13.2289,0,18.43,0m0,18.7439c3.9207,0,6.2677-3.408,6.2677-9.1057,0-5.7243-2.347-9.1589-6.2677-9.1589S12.162,3.9139,12.162,9.6382c0,5.6977,2.3471,9.1057,6.2677,9.1057M3.5473.2662V14.6171s.0266.3195.0266.7987H3.5473v.0266c0,4.5529-1.8937,4.8458-2.2671,4.9256-.32.0533-1.28.24-1.28.24l.4.6123a11.1907,11.1907,0,0,0,2-.2662,4.76,4.76,0,0,0,1.76-.8786,4.9042,4.9042,0,0,0,1.3869-1.7573,6.4211,6.4211,0,0,0,.56-2.8755V.2929h-2.56ZM50.9418,4.047c.32.3727,9.9484,12.0611,12.1354,14.6969h.56V.32h-.9335V14.4041l-.56-.6923c-.32-.3994-9.815-12.0877-10.8551-13.3923H49.4749V18.7706h.9335V3.3814Zm74.1457,14.6969L119.78,9.8778a5.7382,5.7382,0,0,0,3.04-1.5708,4.507,4.507,0,0,0,1.0935-3.195,4.7628,4.7628,0,0,0-.5068-2.343,4.09,4.09,0,0,0-1.36-1.491,5.6644,5.6644,0,0,0-1.9736-.7721A11.4113,11.4113,0,0,0,117.7.2929H112.072v18.451h2.4538V10.1707h2.8l4.9075,8.5732ZM118.3931,1.1182a3.8439,3.8439,0,0,1,2.56,2.0235,5.7556,5.7556,0,0,1,.3734,1.97,5.26,5.26,0,0,1-.3734,2.0767,2.9922,2.9922,0,0,1-1.04,1.3046,4.4282,4.4282,0,0,1-1.6269.7988,17.7077,17.7077,0,0,1-2.7205.1864,6.2584,6.2584,0,0,1-1.0135-.08V.9851c.2134-.0266.4268-.0266.64-.0532.2134,0,.4268-.0267.64-.0267a19.5441,19.5441,0,0,1,2.5605.213"/>
</svg>
