<svg xmlns="http://www.w3.org/2000/svg" width="251.7893" height="37.3108" viewBox="0 0 251.7893 37.3108">
  <title>spotify-hulu-cannes-logo-h</title>
  <path d="M54.3685,18.4016c-3.5812-.8328-4.2475-1.4991-4.2475-2.7483,0-1.166,1.166-1.9988,2.8316-1.9988A8.0123,8.0123,0,0,1,57.8664,15.57a.2061.2061,0,0,0,.3331-.0833h0l1.7489-2.4985a.2061.2061,0,0,0-.0833-.3331A10.9156,10.9156,0,0,0,52.9527,10.24c-3.9144,0-6.6627,2.3319-6.6627,5.6632,0,3.5812,2.3319,4.83,6.4128,5.83,3.4146.8328,3.9976,1.4991,3.9976,2.665,0,1.3326-1.166,2.1654-3.0815,2.1654a7.8655,7.8655,0,0,1-5.7465-2.4152c-.0833,0-.0833-.0833-.1666-.0833s-.0833,0-.1665.0833L45.707,26.5634a.2532.2532,0,0,0,0,.3331,11.7119,11.7119,0,0,0,7.9952,3.0815c4.1641,0,6.9125-2.3319,6.9125-5.83C60.6147,21.15,58.7825,19.4843,54.3685,18.4016Zm15.74-3.5811a5.7618,5.7618,0,0,0-4.5806,2.1653V15.32a.2209.2209,0,0,0-.1875-.25.2249.2249,0,0,0-.0624,0h-3.248a.2208.2208,0,0,0-.25.1875.2174.2174,0,0,0,0,.0624h0V33.7257a.2208.2208,0,0,0,.1874.25.2249.2249,0,0,0,.0624,0h3.248a.2209.2209,0,0,0,.25-.1875.2174.2174,0,0,0,0-.0624v-5.83A6.0753,6.0753,0,0,0,70.109,29.978c3.4146,0,6.8292-2.5818,6.8292-7.5788S73.5236,14.8205,70.109,14.8205Zm2.9982,7.5787c0,2.4985-1.5824,4.3308-3.8311,4.3308a4.02,4.02,0,0,1-3.9143-4.3308,4.02,4.02,0,0,1,3.9143-4.3307C71.5248,18.0685,73.1072,19.9007,73.1072,22.3992Zm29.6487-7.2456H99.1748V11.4891a.2209.2209,0,0,0-.1875-.25.2174.2174,0,0,0-.0624,0h-3.248a.221.221,0,0,0-.25.1874.2249.2249,0,0,0,0,.0624v3.6645H93.8446a.2209.2209,0,0,0-.25.1875.2168.2168,0,0,0,0,.0623h0v2.7484a.2209.2209,0,0,0,.1874.25.2174.2174,0,0,0,.0624,0H95.427V25.564c0,2.9149,1.4158,4.414,4.3307,4.414a6.1591,6.1591,0,0,0,2.9982-.75c.0833,0,.0833-.0832.0833-.1665V26.3968a.29.29,0,0,0-.0833-.1665.1559.1559,0,0,0-.25,0,3.0964,3.0964,0,0,1-1.9155.4164,1.3251,1.3251,0,0,1-1.4991-1.4991V18.4849h3.5811a.2208.2208,0,0,0,.25-.1874.2174.2174,0,0,0,0-.0624V15.4867c.0833-.25,0-.3331-.1666-.3331Zm12.4092,0v-.4164c0-1.3325.5-1.9155,1.6657-1.9155a4.7477,4.7477,0,0,1,1.8322.3331.3324.3324,0,0,0,.3331-.1666V10.1566c0-.0833-.0832-.1666-.1665-.25a9.3875,9.3875,0,0,0-2.6651-.4165c-2.9982,0-4.5805,1.6657-4.5805,4.8305v.6662h-1.6657a.221.221,0,0,0-.25.1875.2249.2249,0,0,0,0,.0624v2.8316a.221.221,0,0,0,.1875.25.2249.2249,0,0,0,.0624,0h1.5824V29.395a.2209.2209,0,0,0,.1874.25.2249.2249,0,0,0,.0624,0h3.2481a.2209.2209,0,0,0,.25-.1875.2174.2174,0,0,0,0-.0624h0V18.4016h2.9982l4.6639,11.0767c-.5,1.166-1.0827,1.4158-1.749,1.4158a3.0784,3.0784,0,0,1-1.7489-.5h-.1666c-.0833,0-.0833.0833-.1666.1666l-1.0826,2.4152c-.0833.0833,0,.25.0832.3331a7.2335,7.2335,0,0,0,3.4147.9161c2.4152,0,3.7477-1.0826,4.83-4.0808l5.58-14.4913c.0833-.0833,0-.25-.1665-.3331h-3.4146c-.0833,0-.1666.0833-.25.1665l-3.4146,9.8274-3.7477-9.8274c0-.0832-.0833-.1665-.25-.1665l-5.4967-.1666Zm-7.2456,0h-3.248a.2209.2209,0,0,0-.25.1875.2242.2242,0,0,0,0,.0623V29.4783a.2208.2208,0,0,0,.1875.25.2174.2174,0,0,0,.0624,0h3.248a.2209.2209,0,0,0,.25-.1874.2249.2249,0,0,0,0-.0624h0V15.32C108.1694,15.2369,108.0861,15.1536,107.92,15.1536Zm-1.5824-6.4128a2.332,2.332,0,1,0,2.3319,2.3319h0a2.277,2.277,0,0,0-2.2208-2.3319Q106.3927,8.7395,106.3371,8.7408Z" transform="translate(-0.1511 -0.4125)"/>
  <path d="M179.7236,14.0709a7.162,7.162,0,0,1,2.332,5.83V33.226h-7.329V20.9a2.0266,2.0266,0,0,0-1.9988-1.9988H168.48a1.9905,1.9905,0,0,0-1.9988,1.9822V33.226h-7.4122V2.5779h7.4122v9.9939a3.566,3.566,0,0,0,.8328-.25,5.6679,5.6679,0,0,1,1.6657-.1666h4.7471A9.2292,9.2292,0,0,1,179.7236,14.0709Zm23.236-1.9155h7.4122V25.0643a8.5151,8.5151,0,0,1-1.9988,5.9131A6.8765,6.8765,0,0,1,202.96,33.226H195.714a8.8665,8.8665,0,0,1-6.08-2.082,7.85,7.85,0,0,1-2.2486-5.9964V12.1554h7.4122V24.4813a2.0848,2.0848,0,0,0,1.9987,1.9988h4.2475a1.95,1.95,0,0,0,1.4158-.583,1.7157,1.7157,0,0,0,.583-1.4158Zm12.9922-9.5775h7.4122V33.226h-7.4122ZM251.93,12.1554V25.0643a8.5151,8.5151,0,0,1-1.9988,5.9131,6.8765,6.8765,0,0,1-5.4134,2.2486h-7.2456a9.2227,9.2227,0,0,1-6.163-2.082,7.85,7.85,0,0,1-2.2486-5.9964V12.1554h7.4122V24.4813a2.0848,2.0848,0,0,0,1.9987,1.9988h4.3308a2.0848,2.0848,0,0,0,1.9988-1.9988V12.1554Z" transform="translate(-0.1511 -0.4125)"/>
  <path d="M85.6829,14.8205a7.6064,7.6064,0,0,0-7.5788,7.5787h0a7.5788,7.5788,0,1,0,7.5788-7.5787Zm4.0809,7.662a3.9582,3.9582,0,0,1-3.6532,4.2415q-.0473.0036-.0946.006h-.25a4.16,4.16,0,0,1-4.0809-4.1642v-.1666a3.9055,3.9055,0,0,1,3.5457-4.2348q.1008-.0089.2021-.0126h.25a4.16,4.16,0,0,1,4.0809,4.1641Z" transform="translate(-0.1511 -0.4125)"/>
  <path d="M18.8066.4125A18.6781,18.6781,0,0,0,.1511,19.0679h0A18.6555,18.6555,0,1,0,18.8066.4125Zm9.9107,28.8159h0a1.3358,1.3358,0,0,1-1.8323.4165h0C21.9713,26.6467,15.8084,25.98,8.48,27.6461a1.3234,1.3234,0,0,1-.583-2.5818c7.9952-1.8322,14.8244-.9994,20.3211,2.3319A1.38,1.38,0,0,1,28.7173,29.2284Zm2.4985-5.6632h0a1.6274,1.6274,0,0,1-2.2462.5013l-.0025-.0016h0C23.3039,20.567,14.809,19.5676,8.1463,21.65A1.6074,1.6074,0,0,1,7.23,18.5682h0c7.5788-2.3319,17.0731-1.166,23.4859,2.7484a1.6273,1.6273,0,0,1,.5012,2.2461Zm.25-5.9131h0C24.72,13.6545,13.56,13.2381,7.1469,15.2369a1.9228,1.9228,0,0,1-1.1815-3.6595l.0156-.005h0c7.4122-2.2486,19.6548-1.8322,27.4,2.8317a1.9263,1.9263,0,0,1,.683,2.6372l-.0167.0278A1.8782,1.8782,0,0,1,31.4656,17.6521Z" transform="translate(-0.1511 -0.4125)"/>
</svg>
