<svg xmlns="http://www.w3.org/2000/svg" width="123.5977" height="81.5008" viewBox="0 0 123.5977 81.5008">
  <title>spotify-hulu-cannes-logo-v</title>
  <path d="M27.5515,56.3243c2.0336,1.6425,3.05,4.2236,3.05,7.8215v17.755H20.9032V65.4755a2.6875,2.6875,0,0,0-2.6594-2.6593h-5.71a2.6705,2.6705,0,0,0-2.6594,2.6593V81.9008H.0978V41.0722H9.953V54.3689c.1564-.0782.5475-.1565,1.095-.3129a10.4271,10.4271,0,0,1,2.19-.2346h6.2573A12.3969,12.3969,0,0,1,27.5515,56.3243Zm30.9734-2.5029H68.38V71.0288A11.0947,11.0947,0,0,1,65.7208,78.85a8.9274,8.9274,0,0,1-7.1959,2.9722H48.8262a11.5633,11.5633,0,0,1-8.1344-2.8158c-2.0337-1.8771-3.05-4.5365-3.05-8.0562V53.7432h9.8552V70.1685A2.6041,2.6041,0,0,0,50.0776,72.75h5.71A2.6705,2.6705,0,0,0,58.4467,70.09ZM75.8106,41.0722h9.8552v40.75H75.8106Zm47.8681,12.7492V71.0288a11.0952,11.0952,0,0,1-2.6594,7.8216,8.9272,8.9272,0,0,1-7.1958,2.9722h-9.62A11.6331,11.6331,0,0,1,95.99,79.0068c-2.0336-1.8771-3.05-4.5365-3.05-8.0562V53.7432h9.8552V70.1685a2.604,2.604,0,0,0,2.5811,2.5811h5.788a2.6041,2.6041,0,0,0,2.5811-2.5811V53.7432h9.9334Z" transform="translate(-0.0978 -0.4)"/>
  <path d="M19.4953.4A19.1629,19.1629,0,1,0,38.6581,19.5629,19.1939,19.1939,0,0,0,19.4953.4Zm8.76,27.61a1.233,1.233,0,0,1-1.6425.391c-4.4583-2.7375-10.168-3.3632-16.8164-1.8771a1.1667,1.1667,0,1,1-.5475-2.2683c7.2741-1.6425,13.5313-.9386,18.6154,2.1118A1.1064,1.1064,0,0,1,28.2554,28.01ZM30.6019,22.77a1.4381,1.4381,0,0,1-2.0336.4693C23.4061,20.11,15.5845,19.1718,9.4837,20.9707a1.51,1.51,0,1,1-.86-2.8939,27.7566,27.7566,0,0,1,21.5093,2.5811,1.5428,1.5428,0,0,1,.4693,2.1118Zm.2347-5.3969c-6.1791-3.6761-16.3471-3.989-22.2133-2.19a1.8058,1.8058,0,1,1-1.095-3.4415c6.7265-2.0336,17.99-1.6425,25.1072,2.5811a1.7865,1.7865,0,0,1,.6257,2.4247,1.7683,1.7683,0,0,1-2.4246.6257Zm21.5875.704c-3.285-.7822-3.9108-1.33-3.9108-2.5029,0-1.0951,1.0168-1.799,2.5811-1.799a7.5,7.5,0,0,1,4.5366,1.7207c.0782,0,.0782.0783.1564.0783s.0782-.0783.1564-.0783l1.6426-2.2682a.1935.1935,0,0,0-.0783-.3129,9.7557,9.7557,0,0,0-6.3354-2.19c-3.598,0-6.1009,2.1118-6.1009,5.24,0,3.2851,2.19,4.4583,5.8662,5.3187,3.1286.704,3.6762,1.33,3.6762,2.4247,0,1.1732-1.0951,1.9554-2.8158,1.9554a7.2815,7.2815,0,0,1-5.2405-2.19c-.0782,0-.0782-.0783-.1564-.0783s-.0782,0-.1564.0783l-1.799,2.19a.238.238,0,0,0,0,.3129A10.8606,10.8606,0,0,0,51.72,28.7923c3.8325,0,6.3354-2.1118,6.3354-5.3186.0783-2.894-1.5643-4.4583-5.6315-5.3969Zm14.3917-3.2851A5.002,5.002,0,0,0,62.67,16.8253V15.3392a.2074.2074,0,0,0-.2347-.2346H59.4635a.2074.2074,0,0,0-.2346.2346V32.1556a.2074.2074,0,0,0,.2346.2346h2.9722a.2074.2074,0,0,0,.2347-.2346V26.8369a5.31,5.31,0,0,0,4.1454,1.8772c3.1286,0,6.2573-2.3465,6.2573-6.9612,0-4.5365-3.1287-6.9612-6.2573-6.9612Zm2.8158,6.9612c0,2.3465-1.4079,3.9108-3.4415,3.9108a3.655,3.655,0,0,1-3.52-3.9108,3.6568,3.6568,0,0,1,3.52-3.9108c1.9554,0,3.4415,1.6425,3.4415,3.9108Zm11.4977-6.9612a6.9626,6.9626,0,0,0-7.1176,6.9612,6.8791,6.8791,0,0,0,7.0394,6.883,6.9626,6.9626,0,0,0,7.1176-6.9612,6.88,6.88,0,0,0-7.0394-6.883Zm0,10.95a3.8126,3.8126,0,0,1-3.7544-3.989,3.6835,3.6835,0,0,1,3.6762-3.9108,3.8126,3.8126,0,0,1,3.7543,3.989A3.6834,3.6834,0,0,1,81.1293,25.7419ZM96.6942,15.1046h-3.285V11.7413a.2075.2075,0,0,0-.2347-.2347H90.2023a.2074.2074,0,0,0-.2346.2347v3.3633H88.56a.2074.2074,0,0,0-.2347.2346V17.92a.2075.2075,0,0,0,.2347.2347h1.4079v6.57c0,2.6593,1.33,3.989,3.9108,3.989A5.09,5.09,0,0,0,96.616,28.01c.0782,0,.0782-.0783.0782-.1565V25.429c0-.0782,0-.1564-.0782-.1564a.1466.1466,0,0,0-.2346,0,3.28,3.28,0,0,1-1.7208.3911,1.2444,1.2444,0,0,1-1.4079-1.4079v-6.179h3.2851a.2074.2074,0,0,0,.2346-.2347V15.261c.1565-.0782.0783-.1564-.0782-.1564Zm11.3413,0v-.3911c0-1.1733.4693-1.7208,1.4861-1.7208a5.5685,5.5685,0,0,1,1.6426.3129h.1564c.0782-.0782.0782-.0782.0782-.1564V10.6463c0-.0783-.0782-.1565-.1564-.2347a8.1641,8.1641,0,0,0-2.4247-.3911c-2.7376,0-4.1455,1.5644-4.1455,4.4583v.6258h-1.4078a.2074.2074,0,0,0-.2347.2346V17.92a.2074.2074,0,0,0,.2347.2347h1.4078V28.323a.2075.2075,0,0,0,.2347.2347h2.9722a.2074.2074,0,0,0,.2346-.2347V18.0768h2.7376l4.2236,10.168c-.4693,1.095-.9385,1.2515-1.5643,1.2515a3.286,3.286,0,0,1-1.6425-.4693h-.1564c-.0783,0-.0783.0782-.1565.0782l-1.0168,2.19c-.0782.0782,0,.2347.0782.3129a6.1985,6.1985,0,0,0,3.1287.7821c2.19,0,3.3633-1.0168,4.4583-3.7543l5.1622-13.2967v-.2346c0-.0783-.0782-.0783-.1564-.0783h-3.05c-.0782,0-.1565.0783-.2347.1565l-3.1286,8.9948-3.4415-8.9948c0-.0782-.0782-.1565-.2346-.1565l-5.0841.0783Zm-6.57,0H98.4932a.2074.2074,0,0,0-.2346.2346V28.2448a.2074.2074,0,0,0,.2346.2347h2.9722a.2075.2075,0,0,0,.2347-.2347V15.261c0-.0782-.0783-.1564-.2347-.1564ZM100.0575,9.16a2.1118,2.1118,0,1,0,2.1118,2.1118A2.1541,2.1541,0,0,0,100.0575,9.16Z" transform="translate(-0.0978 -0.4)"/>
</svg>
